<?xml version="1.0" encoding="utf-8" ?>
<svg xmlns="http://www.w3.org/2000/svg" xmlns:xlink="http://www.w3.org/1999/xlink" width="1024" height="1024">
	<path fill="#FEFEFE" d="M0 0L508.782 0L516.386 0L1024 0L1024 451.981L1024 469.887L1024 677.129L1024 686.403L1024 805.618L1024 813.84L1024 1024L536.751 1024L486.179 1024L0 1024L0 684.929L0 676.022L0 470.639L0 453.874L0 0Z"/>
	<path fill="#471541" d="M491.274 722.664C496.52 722.361 502.263 723.05 507.563 723.103C515.242 723.179 523.039 722.679 530.7 723.221C535.794 723.582 541.098 724.919 544.475 729.042C547.104 732.251 547.671 736.243 547.248 740.266C545.786 754.197 537.986 765.756 527.285 774.248C523.348 776.659 519.736 778.527 515.042 779.041C507.799 779.835 501.573 776.918 496.02 772.585C486.223 764.94 476.611 753.037 475.357 740.223C474.927 735.825 475.71 731.356 478.657 727.922C482.038 723.983 486.39 723.146 491.274 722.664Z"/>
	<path fill="#471541" d="M572.437 801.563C577.314 801.038 582.751 801.945 586.874 804.709C590.929 807.426 593.598 811.777 594.52 816.539C596.107 824.738 591.818 833.7 587.219 840.272Q586.52 841.277 585.772 842.245Q585.024 843.214 584.228 844.145Q583.433 845.075 582.593 845.965Q581.752 846.855 580.868 847.702Q579.985 848.549 579.06 849.351Q578.135 850.153 577.172 850.908Q576.209 851.663 575.209 852.369Q574.209 853.075 573.176 853.731Q572.142 854.387 571.077 854.991Q570.013 855.594 568.919 856.144Q567.826 856.694 566.706 857.189Q565.587 857.685 564.444 858.123Q563.301 858.562 562.138 858.944Q560.975 859.325 559.795 859.649Q558.614 859.972 557.419 860.236Q556.224 860.5 555.017 860.705C539.523 863.355 524.423 858.536 511.792 849.645C501.839 858.385 488.491 862.285 475.352 861.382C461.583 860.436 448.872 854.622 439.766 844.196C435.984 839.859 432.607 835.203 430.624 829.759C428.75 824.614 428.231 819.112 430.687 814.069C433 809.319 438.355 804.678 443.45 803.122C445.946 802.36 448.77 802.374 451.32 802.846C463.482 805.097 462.538 818.703 472.125 823.219C474.904 824.528 478.03 824.819 481.048 824.396C494.944 822.445 494.408 808.787 506.628 804.751C522.647 799.459 526.043 816.134 536.887 821.643C541.136 823.801 545.698 825.305 550.377 823.669C555.973 821.711 557.589 816.84 560.015 812.029C562.965 806.176 566.339 803.593 572.437 801.563Z"/>
	<path fill="#471541" d="M836.851 488.097C835.299 490.138 833.753 491.93 831.493 493.219C827.429 495.537 822.561 496.189 818.081 494.746C816.063 494.096 814.138 493.05 812.399 491.846C806.734 487.924 801.397 483.268 795.881 479.111Q772.001 461.232 748.521 442.832Q727.679 426.749 707.003 410.453C699.936 404.873 692.655 399.406 685.883 393.478C683.725 391.589 681.882 389.734 680.569 387.141C677.971 382.013 677.729 375.805 679.731 370.434C680.514 368.332 681.597 366.685 683.067 364.998C694.392 352.003 791.877 258.759 801.563 254.86C808.192 252.191 813.836 254.62 819.902 257.353C826.562 264.524 828.421 277.543 830.8 286.887C841.779 329.998 848.688 373.145 846.957 417.733C846.502 429.446 841.159 478.789 836.851 488.097Z"/>
	<path fill="#E8C2D8" d="M798.88 306.065C807.356 343.904 812.754 383.628 810.191 422.419C809.744 429.183 809.394 435.911 808.127 442.583C800.472 435.733 792.108 429.727 784.463 422.875C765.37 409.957 747.512 394.862 729.173 380.883C727.481 379.696 726.01 378.23 724.497 376.828C734.736 365.317 746.131 355.033 757.435 344.598C764.631 337.957 771.632 331.116 778.858 324.508L798.88 306.065Z"/>
	<path fill="#471541" d="M209.317 254.734C215.501 253.384 220.302 253.728 225.826 257.262C230.768 260.424 235.311 265.54 239.663 269.509L264.877 292.438Q290.926 316.161 316.191 340.716L330.725 354.792C333.771 357.708 337.134 360.492 339.947 363.628C342.261 366.207 343.99 369.523 344.62 372.939C345.642 378.477 344.214 384.34 341.011 388.933C336.788 394.986 311.683 413.462 304.242 419.389C279.294 439.262 254.627 459.441 229.463 479.047C222.889 484.169 216.679 489.949 209.69 494.503C207.911 495.661 205.779 496.295 203.693 496.613C199.655 497.228 195.65 496.323 191.968 494.674C191.847 494.593 191.724 494.514 191.603 494.433L191.002 494.02C187.931 491.942 185.394 489.61 183.954 486.109C180.308 477.241 180.423 465.022 179.722 455.525C178.737 442.193 177.699 428.754 177.497 415.386Q177.386 399.333 178.183 383.299Q178.979 367.265 180.68 351.302Q182.382 335.339 184.982 319.498Q187.583 303.656 191.074 287.987C192.793 280.535 193.475 272.052 196.498 265.023C199.079 259.02 203.558 256.904 209.317 254.734Z"/>
	<path fill="#E8C2D8" d="M224.127 305.069C231.134 311.865 239.003 317.967 245.624 325.12Q273.533 350.254 300.078 376.824C279.075 393.316 258.426 410.419 237.014 426.371C230.084 432.164 223.202 438.01 215.711 443.074C213.637 425.58 214.118 407.777 214.932 390.204Q215.766 368.787 218.067 347.479Q220.369 326.17 224.127 305.069Z"/>
	<path fill="#471541" d="M691.038 525.694C691.267 525.651 691.493 525.594 691.725 525.565C696.182 525.008 701.244 525.25 705.743 525.451Q708.187 525.556 710.624 525.766Q713.061 525.976 715.487 526.289Q717.913 526.603 720.323 527.02Q722.734 527.437 725.124 527.957Q727.514 528.477 729.88 529.098Q732.246 529.719 734.583 530.441Q736.921 531.163 739.225 531.984Q741.529 532.806 743.796 533.724Q746.063 534.643 748.289 535.658Q750.514 536.673 752.694 537.782Q754.875 538.891 757.005 540.093Q759.136 541.294 761.214 542.585Q763.291 543.877 765.312 545.255Q767.332 546.634 769.292 548.098Q771.252 549.562 773.147 551.109Q775.042 552.655 776.87 554.281Q777.955 555.265 779.016 556.274Q780.076 557.284 781.112 558.318Q782.148 559.353 783.159 560.413Q784.17 561.473 785.154 562.556Q786.139 563.64 787.097 564.748Q788.056 565.855 788.987 566.985Q789.918 568.115 790.821 569.267Q791.725 570.42 792.6 571.594Q793.476 572.768 794.322 573.962Q795.169 575.157 795.987 576.372Q796.804 577.587 797.592 578.821Q798.38 580.055 799.138 581.308Q799.896 582.561 800.623 583.832Q801.35 585.103 802.046 586.391Q802.743 587.679 803.408 588.984Q804.073 590.289 804.706 591.609Q805.339 592.929 805.94 594.265Q806.541 595.6 807.11 596.949Q807.678 598.299 808.214 599.662Q808.75 601.024 809.252 602.4Q809.755 603.775 810.224 605.162Q810.693 606.549 811.129 607.948Q811.564 609.346 811.966 610.754Q812.367 612.162 812.735 613.579Q813.102 614.997 813.435 616.423Q813.768 617.849 814.066 619.283Q814.365 620.716 814.628 622.156Q814.892 623.597 815.12 625.043Q815.349 626.49 815.543 627.941Q815.736 629.393 815.895 630.848Q816.053 632.304 816.176 633.763Q816.299 635.222 816.387 636.684C817.926 665.979 805.842 697.477 786.238 719.052C768.233 738.868 738.851 754.384 711.851 755.595C683.116 758.733 652.611 749.311 629.975 731.633C606.796 713.531 590.455 687.071 586.891 657.613C583.218 627.253 591.642 594.625 610.677 570.518C630.951 544.842 658.708 529.626 691.038 525.694Z"/>
	<path fill="#FEFEFE" d="M737.373 624.148C734.275 626.929 731.086 629.426 727.225 631.068C720.762 633.816 713.41 634.13 706.87 631.431C700.353 628.741 694.959 623.174 692.266 616.661C689.624 610.273 689.423 603.179 692.273 596.817C695.259 590.153 701.296 584.964 708.169 582.603C716.574 579.716 723.683 581.212 731.378 584.932C737.746 589.974 742.773 595.731 743.598 604.195C744.123 609.569 742.258 619.702 738.09 623.596C737.87 623.802 737.612 623.964 737.373 624.148Z"/>
	<path fill="#ADDCAA" d="M671.926 568.445L672.695 568.579C672.256 569.921 665.608 576.416 663.986 578.878Q663.281 579.949 662.629 581.053Q661.977 582.157 661.381 583.292Q660.785 584.427 660.245 585.589Q659.705 586.752 659.224 587.941Q658.742 589.129 658.32 590.339Q657.898 591.55 657.536 592.78Q657.174 594.01 656.873 595.256Q656.572 596.502 656.333 597.762Q656.094 599.021 655.918 600.291Q655.742 601.561 655.628 602.838Q655.515 604.115 655.464 605.396Q655.414 606.677 655.427 607.959Q655.44 609.241 655.516 610.521Q655.593 611.801 655.732 613.075Q655.871 614.349 656.073 615.616Q656.276 616.882 656.54 618.136C659.975 633.954 669.941 645.461 683.286 654.04C683.87 663.898 683.542 673.94 683.54 683.815C683.539 695.023 683.814 706.359 683.174 717.549C675.36 715.883 668.685 712.769 661.69 709.028Q660.366 708.249 659.073 707.42Q657.78 706.592 656.519 705.715Q655.258 704.838 654.031 703.914Q652.804 702.99 651.613 702.02Q650.422 701.051 649.269 700.037Q648.115 699.023 647 697.966Q645.886 696.909 644.812 695.811Q643.739 694.713 642.707 693.575Q641.676 692.437 640.688 691.261Q639.7 690.085 638.758 688.872Q637.815 687.659 636.919 686.412Q636.023 685.165 635.174 683.884Q634.326 682.604 633.527 681.293Q632.727 679.981 631.978 678.64Q631.229 677.3 630.531 675.932Q629.833 674.563 629.187 673.17C620.712 654.815 620.882 633.18 627.973 614.415C635.883 593.482 651.762 577.663 671.926 568.445Z"/>
	<path fill="#6FA26D" d="M724.357 565.078C749.489 576.903 765.204 588.399 775.069 615.527C781.841 634.151 780.44 655.619 772.025 673.489C762.8 693.076 746.884 707.894 726.418 715.203Q723.698 716.172 720.947 717.047L720.981 678.148C720.994 669.67 720.744 661.079 721.486 652.63C730.724 646.175 735.494 637.624 737.469 626.607C737.659 625.548 737.714 625.196 737.373 624.148C737.612 623.964 737.87 623.802 738.09 623.596C742.258 619.702 744.123 609.569 743.598 604.195C742.773 595.731 737.746 589.974 731.378 584.932C730.275 578.045 726.868 571.533 724.357 565.078Z"/>
	<path fill="#471541" d="M318.356 525.218C318.479 525.206 318.601 525.191 318.724 525.183C348.544 523.387 378.471 536.139 400.246 556.049C423.677 577.472 436.628 607.761 437.955 639.268C439.149 667.611 426.366 700.454 407.194 721.097Q406.253 722.113 405.287 723.106Q404.322 724.098 403.332 725.067Q402.342 726.036 401.329 726.98Q400.316 727.924 399.28 728.843Q398.244 729.762 397.186 730.656Q396.128 731.549 395.048 732.417Q393.969 733.284 392.868 734.125Q391.767 734.965 390.647 735.779Q389.526 736.592 388.385 737.378Q387.245 738.164 386.086 738.921Q384.927 739.679 383.749 740.408Q382.572 741.137 381.377 741.837Q380.182 742.537 378.97 743.207Q377.758 743.878 376.531 744.519Q375.303 745.159 374.06 745.77Q372.817 746.38 371.559 746.96Q370.301 747.54 369.03 748.089Q367.758 748.638 366.474 749.155Q365.189 749.673 363.893 750.159Q362.596 750.645 361.287 751.099Q359.979 751.553 358.66 751.975Q357.341 752.397 356.012 752.786Q354.683 753.176 353.345 753.533Q352.007 753.89 350.66 754.214Q349.314 754.538 347.96 754.829Q346.606 755.12 345.245 755.378Q343.885 755.636 342.518 755.86Q341.152 756.084 339.78 756.275Q338.408 756.466 337.032 756.623Q335.656 756.781 334.277 756.904Q332.898 757.028 331.516 757.117Q330.134 757.207 328.75 757.263C299.193 758.44 271.444 748.065 248.859 729.158C224.465 708.736 210.861 681.023 208.256 649.451C205.836 620.117 216.032 588.986 235.135 566.625C250.637 548.481 272.058 534.171 295.392 528.426C302.949 526.565 310.616 525.795 318.356 525.218Z"/>
	<path fill="#FEFEFE" d="M357.547 621.025C354.446 624.865 351.339 628.048 346.775 630.122C340.403 633.018 333.186 632.932 326.699 630.425Q326.109 630.193 325.532 629.932Q324.954 629.671 324.39 629.382Q323.826 629.093 323.277 628.776Q322.729 628.46 322.196 628.116Q321.664 627.773 321.149 627.403Q320.634 627.034 320.138 626.639Q319.642 626.244 319.166 625.826Q318.691 625.407 318.236 624.965Q317.782 624.523 317.35 624.06Q316.918 623.596 316.51 623.112Q316.101 622.627 315.717 622.123Q315.333 621.619 314.975 621.096Q314.617 620.573 314.284 620.034Q313.952 619.494 313.647 618.938Q313.343 618.383 313.065 617.813Q312.788 617.243 312.54 616.66C309.746 610.274 309.973 603.319 312.748 596.963C315.493 590.678 320.739 585.407 327.207 583.012C335.172 580.063 342.078 582.366 349.327 585.827C355.394 590.33 360.031 596.786 361.287 604.369C362.354 610.807 360.654 615.567 357.547 621.025Z"/>
	<path fill="#ADDCAA" d="M290.786 568.488L291.295 568.859C287.125 573.922 282.295 578.558 279.481 584.582C273.417 597.563 273.242 612.765 278.268 626.094C283.202 639.178 292.48 648.047 305.119 653.675L305.177 718.18C298.213 715.476 291.331 713.608 284.702 710.004C270.205 701.266 259.49 689.497 252.103 674.297C243.269 656.119 242.717 634.683 249.395 615.729C256.656 595.12 270.97 577.911 290.786 568.488Z"/>
	<path fill="#6FA26D" d="M342.781 566.043C364.607 572.511 380.88 584.538 391.932 604.79C401.213 621.798 404.35 644.194 398.668 662.886C392.294 683.855 379.419 700.997 359.831 711.235C354.189 714.184 348.235 716.027 342.17 717.877Q341.907 685.64 342.379 653.405C350.771 643.742 356.843 634.136 357.547 621.025C360.654 615.567 362.354 610.807 361.287 604.369C360.031 596.786 355.394 590.33 349.327 585.827C347.99 578.871 345.586 572.518 342.781 566.043Z"/>
	<path fill="#471541" d="M121.597 340.178C123.859 340.704 126.935 340.522 129.184 339.938C134.232 338.628 138.874 335.32 141.387 330.699C145.334 323.441 146.53 313.239 148.599 305.156Q156.379 275.234 165.073 245.564C167.757 236.367 170.588 222.595 175.507 214.753C178.008 210.767 182.13 208.321 186.701 207.325C197.463 204.977 207.535 213.192 216.193 218.522C215.42 224.757 214.138 231.029 212.693 237.142C211.587 241.819 208.595 249.814 208.737 254.312L209.317 254.734C203.558 256.904 199.079 259.02 196.498 265.023C193.475 272.052 192.793 280.535 191.074 287.987Q187.583 303.656 184.982 319.498Q182.382 335.339 180.68 351.302Q178.979 367.265 178.183 383.299Q177.386 399.333 177.497 415.386C177.699 428.754 178.737 442.193 179.722 455.525C180.423 465.022 180.308 477.241 183.954 486.109C185.394 489.61 187.931 491.942 191.002 494.02L191.603 494.433C191.724 494.514 191.847 494.593 191.968 494.674L191.887 495.167C191.195 499.645 191.211 504.23 190.819 508.743C190.257 515.211 188.541 521.678 186.382 527.784C181.217 542.393 171.5 555.229 164.163 568.788C151.398 592.376 133.377 644.683 133.925 671.484C143.449 672.956 152.854 675.571 162.209 677.873C166.532 678.937 171.319 679.636 175.412 681.379C178.681 682.771 181.566 684.9 183.715 687.744C186.816 691.849 187.918 696.945 186.994 701.986C186.056 707.099 183.275 711.704 178.849 714.515C172.713 718.411 166.483 717.628 159.833 715.955C151.546 713.87 143.313 711.915 134.954 710.131C133.621 714.336 135.218 721.402 135.792 725.742C139.805 756.098 149.852 782.651 163.146 810.026C170.63 805.561 191.276 793.099 198.372 791.116Q199.678 790.763 201.02 790.584Q202.361 790.405 203.714 790.403Q205.067 790.401 206.409 790.577Q207.751 790.752 209.058 791.102C213.832 792.371 218.134 795.466 220.59 799.789C223.118 804.239 223.477 809.714 221.897 814.551Q221.534 815.647 221.031 816.685Q220.527 817.724 219.891 818.687Q219.254 819.65 218.497 820.521Q217.74 821.392 216.874 822.156C210.608 827.761 190.179 837.911 181.823 842.597C189.2 858.081 228.419 898.696 243.222 909.7Q254.102 917.644 265.07 925.467C268.846 928.111 273.537 930.662 276.745 933.96C277.451 934.686 277.796 935.383 278.152 936.314C294.747 944.996 312.256 951.736 329.935 957.821C410.826 985.665 499.236 993.047 584.02 982.927C597.485 981.32 617.21 974.774 623.125 992.421C623.767 994.337 624.034 996.484 624.261 998.49C623.472 1004.56 621.765 1009.66 616.611 1013.46C605.788 1021.44 553.118 1022.16 536.751 1024L486.179 1024L0 1024L0 684.929L0 676.022L0 470.639L0 453.874C6.77663 443.059 20.499 443.309 27.297 430.55C34.2587 417.483 31.4739 394.026 38.7876 383.229C41.3641 379.425 45.8358 376.798 50.3412 376.102C78.9448 371.68 69.9588 417.728 81.4397 433.566C86.4668 440.501 94.2564 442.498 100.971 447.195C100.567 438.394 99.45 429.6 99.311 420.788C99.1645 411.495 98.0233 399.701 105.26 392.626C109.309 388.669 114.061 387.851 119.473 387.841C120.056 372.179 117.922 355.63 121.597 340.178Z"/>
	<path fill="#FEFEFE" d="M53.7118 456.952C55.2029 457.02 56.4993 457.067 57.58 458.246C58.3874 459.126 58.4413 460.393 58.1911 461.495C57.787 463.275 56.7944 463.959 55.3647 464.949C54.4004 464.568 53.3204 464.089 52.5109 463.425C51.4585 462.562 51.3149 461.839 51.1288 460.554C51.5913 458.851 52.4742 458.108 53.7118 456.952Z"/>
	<path fill="#E8C2D8" d="M164.339 853.998C170.161 850.176 175.916 846.29 181.823 842.597C189.2 858.081 228.419 898.696 243.222 909.7Q254.102 917.644 265.07 925.467C268.846 928.111 273.537 930.662 276.745 933.96C277.451 934.686 277.796 935.383 278.152 936.314C272.473 933.967 266.897 930.461 261.483 927.528C226.661 908.665 190.851 883.596 164.339 853.998Z"/>
	<path fill="#E8C2D8" d="M96.9437 704.304C109.696 705.123 122.458 707.569 134.954 710.131C133.621 714.336 135.218 721.402 135.792 725.742C139.805 756.098 149.852 782.651 163.146 810.026C155.537 815.305 147.267 819.899 139.291 824.611C123.145 798.786 108.336 771.705 102.027 741.578C99.4366 729.212 98.3318 716.831 96.9437 704.304Z"/>
	<path fill="#FEFEFE" d="M0 470.639C7.76383 481.058 20.2662 478.844 27.3045 491.872C34.0728 504.4 32.6653 530.205 41.1853 539.446Q41.6019 539.895 42.0513 540.312Q42.5007 540.728 42.9802 541.11Q43.4597 541.491 43.9667 541.835Q44.4736 542.179 45.0051 542.484Q45.5366 542.789 46.0896 543.053Q46.6425 543.317 47.2138 543.538Q47.7852 543.76 48.3716 543.938Q48.958 544.115 49.5561 544.248Q50.366 544.432 51.1892 544.541C56.2118 545.212 60.4875 543.765 64.4553 540.685C77.8498 530.285 71.1687 501.875 82.5297 489.232C88.1414 482.987 97.5352 478.94 105.252 475.94C107.649 489.692 110.139 503.494 113.858 516.971C110.399 528.165 100.924 541.001 95.3939 551.695C77.8709 585.58 63.8866 625.659 60.3901 663.777C50.2039 664.416 39.8953 663.998 29.6897 663.913C24.5722 663.871 19.039 663.425 13.9977 664.329C10.4849 664.959 6.211 666.593 3.86451 669.414C2.27578 671.324 1.13176 673.819 0 676.022L0 470.639Z"/>
	<path fill="#E8C2D8" d="M121.597 340.178C123.859 340.704 126.935 340.522 129.184 339.938C134.232 338.628 138.874 335.32 141.387 330.699C145.334 323.441 146.53 313.239 148.599 305.156Q156.379 275.234 165.073 245.564C167.757 236.367 170.588 222.595 175.507 214.753C178.008 210.767 182.13 208.321 186.701 207.325C197.463 204.977 207.535 213.192 216.193 218.522C215.42 224.757 214.138 231.029 212.693 237.142C211.587 241.819 208.595 249.814 208.737 254.312L209.317 254.734C203.558 256.904 199.079 259.02 196.498 265.023C193.475 272.052 192.793 280.535 191.074 287.987Q187.583 303.656 184.982 319.498Q182.382 335.339 180.68 351.302Q178.979 367.265 178.183 383.299Q177.386 399.333 177.497 415.386C177.699 428.754 178.737 442.193 179.722 455.525C180.423 465.022 180.308 477.241 183.954 486.109C185.394 489.61 187.931 491.942 191.002 494.02L191.603 494.433C191.724 494.514 191.847 494.593 191.968 494.674L191.887 495.167C191.195 499.645 191.211 504.23 190.819 508.743C190.257 515.211 188.541 521.678 186.382 527.784C181.217 542.393 171.5 555.229 164.163 568.788C151.398 592.376 133.377 644.683 133.925 671.484C121.983 669.025 109.828 667.618 97.7244 666.237C99.489 658.441 100.295 650.365 101.925 642.515Q103.433 635.114 105.38 627.817Q107.327 620.519 109.705 613.35Q112.083 606.182 114.883 599.167Q117.684 592.153 120.898 585.318C124.114 578.309 127.524 571.28 131.256 564.528C137.194 553.787 144.578 543.147 147.851 531.235Q148.531 528.707 148.986 526.129Q149.442 523.552 149.67 520.944Q149.898 518.336 149.897 515.718Q149.896 513.101 149.665 510.493C148.711 499.865 145.73 489.504 143.492 479.099C141.284 468.829 139.627 458.334 138.28 447.916C137 438.016 136.356 427.953 135.84 417.983C135.584 413.019 135.884 407.957 135.21 403.028C134.858 400.461 134.285 397.976 132.919 395.74C129.889 390.782 124.802 389.116 119.473 387.841C120.056 372.179 117.922 355.63 121.597 340.178Z"/>
	<path fill="#FEFEFE" d="M0 684.929C1.64607 690.717 3.46663 695.309 9.12841 698.304C17.2797 702.617 49.5694 700.984 60.33 700.971C58.5502 720.468 65.0926 749.968 71.0656 768.854C66.3157 770.843 61.4281 772.37 56.6488 774.27Q39.0685 781.235 21.8466 789.044C16.9844 791.226 11.3436 792.987 7.15134 796.328C4.99464 798.047 3.26267 800.6 2.24455 803.149C0.305744 808.004 0.971301 814.531 3.08902 819.282C4.99542 823.558 8.74768 826.731 13.1367 828.248C15.8852 829.198 20.0615 830.033 22.9587 829.387C30.1797 827.777 37.7203 822.6 44.5677 819.526C57.4838 813.727 70.8558 808.176 84.3009 803.743C88.2699 811.221 92.1873 818.753 96.6022 825.981C100.994 833.171 105.87 840.078 110.218 847.281C103.784 851.731 97.4183 856.193 91.3362 861.119C80.0116 870.292 41.6501 904.034 39.2441 916.805C38.2783 921.931 39.238 927.657 42.2524 931.963C45.1068 936.041 49.8673 938.234 54.6854 939.004C59.1726 939.721 64.2244 938.633 67.9095 935.931C75.2159 930.574 82.7409 919.585 89.7171 912.784C103.35 899.494 118.493 887.33 133.349 875.453C204.219 951.426 303.19 998.01 404.847 1015.52Q431.011 1020.05 457.489 1022.05C465.417 1022.66 479.008 1022.51 486.179 1024L0 1024L0 684.929Z"/>
	<path fill="#471541" d="M0 0L508.782 0L516.386 0L1024 0L1024 451.981L1024 469.887L1024 677.129L1024 686.403L1024 805.618L1024 813.84C1022.56 819.205 1020.22 823.74 1015.24 826.661C1011.49 828.861 1007.13 829.795 1002.93 828.617C995.106 826.421 987.243 821.377 979.811 817.93Q960.448 808.882 940.358 801.589C932.903 817.064 925.345 832.882 914.287 846.199C934.267 862.791 953.796 879.861 971.528 898.898C974.788 902.397 978.694 905.903 981.389 909.844Q982.109 910.903 982.686 912.046Q983.263 913.189 983.688 914.396Q984.114 915.604 984.38 916.856Q984.646 918.109 984.748 919.385C985.177 924.617 983.396 930.105 979.848 933.996C976.626 937.53 971.782 939.461 967.043 939.655C961.949 939.863 957.26 937.755 953.646 934.235C947.387 928.14 941.75 921.136 935.61 914.861C921.795 900.742 906.669 887.177 890.936 875.246C885.339 882.19 878.406 888.277 871.93 894.396C828.931 935.034 775.707 966.23 720.73 987.623C712.509 990.821 698.418 997.262 690.017 998.083C685.211 998.552 679.672 996.839 676.058 993.672C673.293 991.249 671.484 988.08 669.654 984.936C669.026 981.651 669.309 977.543 670.26 974.376C671.494 970.264 674.029 966.326 677.606 963.877C684.203 959.36 698.802 955.65 706.637 952.8C720.404 947.791 738.697 940.43 751.233 933.238L751.95 932.82C752.264 932.164 752.502 931.569 753.05 931.048C756.432 927.831 761.805 925.332 765.635 922.468C776.092 914.65 786.436 906.278 796.058 897.463Q802.73 891.335 809.081 884.873Q815.431 878.411 821.442 871.632Q827.453 864.854 833.109 857.776Q838.765 850.699 844.052 843.342L811.419 825.602C807.104 823.29 803.691 819.848 802.344 815.04C800.928 809.99 801.39 803.926 804.044 799.351Q804.51 798.565 805.051 797.829Q805.592 797.093 806.202 796.413Q806.813 795.734 807.487 795.118Q808.161 794.501 808.893 793.955Q809.625 793.407 810.406 792.935Q811.188 792.462 812.013 792.069Q812.837 791.676 813.696 791.365Q814.555 791.055 815.441 790.83Q816.452 790.574 817.486 790.445Q818.521 790.316 819.563 790.316Q820.606 790.316 821.64 790.445Q822.674 790.574 823.685 790.83C833.187 793.191 852.446 805.734 861.821 811.227C874.371 785.441 882.63 761.959 887.072 733.508C888.327 725.469 889.549 717.439 889.528 709.284C880.343 711.838 870.814 713.661 861.555 716.067C854.447 717.913 848.569 719.346 841.834 715.192C837.646 712.61 834.406 708.572 833.291 703.732C832.227 699.117 833.14 693.802 835.712 689.823C837.376 687.248 839.76 685.215 842.461 683.786C851.922 678.778 877.6 674.181 889.46 671.765C889.737 665.763 887.562 658.515 886.41 652.549C881.193 625.544 873.48 598.537 861.791 573.566C858.884 567.356 855.462 561.311 852.25 555.25C846.591 544.574 837.532 534.785 834.84 522.787C832.862 513.973 834.498 505.486 835.866 496.726C836.254 494.241 836.91 491.508 836.876 489.001C836.872 488.699 836.859 488.398 836.851 488.097C841.159 478.789 846.502 429.446 846.957 417.733C848.688 373.145 841.779 329.998 830.8 286.887C828.421 277.543 826.562 264.524 819.902 257.353C819.974 257.164 820.05 256.977 820.076 256.773C820.328 254.79 808.656 222.12 807.052 219.603C800.714 222.738 794.503 227.28 788.622 231.218C762.244 248.881 736.844 268.993 714.293 291.337C703.072 302.456 690.153 319.329 677.087 327.401C665.079 334.819 649.338 338.308 635.779 341.796C633.949 365.361 623.216 387.075 606.829 403.846C581.608 429.66 548.861 442.096 513.04 442.444C478.089 442.783 442.732 430.068 417.701 405.336C402.519 390.335 387.545 364.123 387.399 342.296C373.112 338.967 359.17 335.204 346.736 327.075C338.377 321.61 331.831 313.665 324.911 306.558Q314.422 295.893 303.657 285.506Q293.657 275.996 283.164 267.032Q272.67 258.069 261.714 249.678Q250.758 241.287 239.369 233.493Q227.981 225.698 216.193 218.522C207.535 213.192 197.463 204.977 186.701 207.325C182.13 208.321 178.008 210.767 175.507 214.753C170.588 222.595 167.757 236.367 165.073 245.564Q156.379 275.234 148.599 305.156C146.53 313.239 145.334 323.441 141.387 330.699C138.874 335.32 134.232 338.628 129.184 339.938C126.935 340.522 123.859 340.704 121.597 340.178C117.922 355.63 120.056 372.179 119.473 387.841C114.061 387.851 109.309 388.669 105.26 392.626C98.0233 399.701 99.1645 411.495 99.311 420.788C99.45 429.6 100.567 438.394 100.971 447.195C94.2564 442.498 86.4668 440.501 81.4397 433.566C69.9588 417.728 78.9448 371.68 50.3412 376.102C45.8358 376.798 41.3641 379.425 38.7876 383.229C31.4739 394.026 34.2587 417.483 27.297 430.55C20.499 443.309 6.77663 443.059 0 453.874L0 0Z"/>
	<path fill="#FEFEFE" d="M968.394 456.737C969.626 456.952 971.126 457.285 972.007 458.274C972.906 459.282 973.264 460.092 973.089 461.459C972.909 462.854 971.538 463.626 970.486 464.346C969.681 464.171 968.471 463.941 967.792 463.418C966.577 462.482 966.523 461.947 966.206 460.534C966.564 458.78 967.186 458.032 968.394 456.737Z"/>
	<path fill="#E8C2D8" d="M844.052 843.342C849.613 846.616 855.282 849.883 860.626 853.499C855.724 859.526 849.701 864.847 844.005 870.109C821.003 891.36 796.178 908.563 768.889 923.805C763.471 926.831 757.745 930.59 751.95 932.82C752.264 932.164 752.502 931.569 753.05 931.048C756.432 927.831 761.805 925.332 765.635 922.468C776.092 914.65 786.436 906.278 796.058 897.463Q802.73 891.335 809.081 884.873Q815.431 878.411 821.442 871.632Q827.453 864.854 833.109 857.776Q838.765 850.699 844.052 843.342Z"/>
	<path fill="#D291D7" d="M515.064 176.54C528.088 177.111 541.114 177.161 554.147 177.498C558.08 190.415 561.859 203.506 566.302 216.251C558.796 217.51 551.342 218.702 543.74 219.188C538.776 219.505 533.8 219.33 528.85 219.613C526.936 210.71 520.071 182.845 515.064 176.54Z"/>
	<path fill="#9A609A" d="M512.511 50.3008C513.316 51.1335 537.136 125.045 539.027 133.058C531.29 133.175 523.69 132.641 516.003 131.845C506.337 130.702 497.698 128.209 488.536 125.058C495.839 106.421 501.113 86.9185 507.103 67.8279C508.915 62.0514 510.326 55.9159 512.511 50.3008Z"/>
	<path fill="#E8C2D8" d="M473.467 166.979C480.646 169.061 487.86 171.381 495.185 172.882C500.934 174.061 509.943 174.626 515.064 176.54C520.071 182.845 526.936 210.71 528.85 219.613C524.532 219.136 520.181 219.081 515.86 218.563Q507.566 217.498 499.393 215.731Q491.219 213.964 483.226 211.508C476.084 209.33 469.225 206.397 462.133 204.09C463.052 199.829 464.746 195.609 466.102 191.465C468.748 183.376 471.402 175.238 473.467 166.979Z"/>
	<path fill="#E8C2D8" d="M889.528 709.284C901.979 706.9 914.6 704.629 927.221 703.335C926.235 713.949 925.232 724.445 923.092 734.907C917.182 763.788 902.905 801.27 883.698 824.041L861.821 811.227C874.371 785.441 882.63 761.959 887.072 733.508C888.327 725.469 889.549 717.439 889.528 709.284Z"/>
	<path fill="#FEFEFE" d="M1024 686.403L1024 805.618C1022.04 802.338 1021.4 798.506 1018.49 795.771C1015.42 792.897 1010.89 791.252 1007.17 789.359C998.013 784.704 988.923 780.003 979.438 776.044C971.371 772.677 963.07 770.035 955.119 766.373Q958.075 755.057 960.213 743.559Q962.351 732.061 963.66 720.439C964.351 714.547 963.765 708.15 965.067 702.41C966.005 701.534 966.612 701.285 967.913 701.184C970.855 700.955 974.102 701.418 977.062 701.526C986.18 701.857 1006.71 703.271 1014.25 699.62C1020.08 696.798 1022.12 692.19 1024 686.403Z"/>
	<path fill="#D291D7" d="M534.708 261.676C549.33 261.807 563.611 260.454 577.853 257.1C579.498 264.421 581.98 271.543 584.136 278.726C586.676 287.188 588.998 295.71 591.605 304.154C594.406 313.229 598.535 323.408 598.888 332.924C599.334 344.922 595.179 357.267 588.827 367.33C576.459 386.923 556.666 397.506 534.5 402.446C530.158 403.414 525.857 404.02 521.422 404.325C524.682 400.819 528.585 397.851 532.071 394.56C539.965 387.109 546.432 377.8 551.099 368.024C565.705 337.43 554.066 307.154 543.339 277.636C541.514 272.616 540.255 267.463 538.464 262.454L534.708 261.676Z"/>
	<path fill="#FEFEFE" d="M918.305 476.93C924.426 478.659 930.649 481.024 935.875 484.712C949.179 494.102 949.368 510.631 951.896 525.259C952.977 531.514 954.157 537.708 959.838 541.508C963.632 544.047 969.46 545.483 973.969 544.499C975.18 544.235 976.363 543.803 977.507 543.33C980.867 541.941 983.774 540.022 985.732 536.89C991.517 527.636 990.398 503.067 997.307 491.643C1004.34 480.007 1017.76 480.187 1024 469.887L1024 677.129C1022.71 673.911 1021.35 671.24 1018.8 668.788Q1017.99 668.017 1017.08 667.361Q1016.18 666.705 1015.19 666.177Q1014.21 665.648 1013.16 665.256Q1012.11 664.865 1011.02 664.617C1004.74 663.15 997.41 664.006 990.969 664.031L963.121 663.989C959.7 628.823 950.22 596.406 934.742 564.57C931.391 557.676 927.78 550.809 924.152 544.052C920.312 536.902 912.849 526.686 911.717 518.875C910.325 509.279 916.531 487.593 918.305 476.93Z"/>
	<path fill="#E8C2D8" d="M449.915 244.061C455.728 245.952 461.369 248.372 467.212 250.224C489.259 257.214 511.567 261.331 534.708 261.676L538.464 262.454C540.255 267.463 541.514 272.616 543.339 277.636C554.066 307.154 565.705 337.43 551.099 368.024C546.432 377.8 539.965 387.109 532.071 394.56C528.585 397.851 524.682 400.819 521.422 404.325C511.321 406.711 492.031 403.481 482.046 400.536C461.06 394.348 441.613 381.551 431.122 361.851C426.806 353.749 423.46 342.979 423.867 333.718C424.264 324.705 433.127 298.73 436.149 289.009L449.915 244.061Z"/>
	<path fill="#E8C2D8" d="M807.052 219.603C814.893 214.676 825.76 205.503 835.475 207.887C839.624 208.905 844.409 211.676 846.676 215.399C850.932 222.39 856.346 241.438 859.329 250.028C868.508 276.46 877.013 304.23 882.118 331.783C886.23 353.975 888.609 382.319 888.156 404.956C887.875 419 886.471 432.753 884.742 446.681C883.431 457.237 882.123 467.765 880.277 478.244C877.571 493.611 871.929 509.457 874.697 525.218C877.891 543.401 890.088 559.567 898.389 575.768C912.697 603.694 922.698 634.873 926.027 666.078C922.063 666.681 890.677 671.973 889.46 671.765C889.737 665.763 887.562 658.515 886.41 652.549C881.193 625.544 873.48 598.537 861.791 573.566C858.884 567.356 855.462 561.311 852.25 555.25C846.591 544.574 837.532 534.785 834.84 522.787C832.862 513.973 834.498 505.486 835.866 496.726C836.254 494.241 836.91 491.508 836.876 489.001C836.872 488.699 836.859 488.398 836.851 488.097C841.159 478.789 846.502 429.446 846.957 417.733C848.688 373.145 841.779 329.998 830.8 286.887C828.421 277.543 826.562 264.524 819.902 257.353C819.974 257.164 820.05 256.977 820.076 256.773C820.328 254.79 808.656 222.12 807.052 219.603Z"/>
	<path fill="#FEFEFE" d="M516.386 0L1024 0L1024 451.981C1019.48 447.036 1014.29 445.088 1008.64 441.842C988.243 430.124 994.315 408.066 988.883 389.037C987.53 384.299 984.983 380.182 980.503 377.854C975.923 375.475 970.064 375.254 965.231 377.016C947.89 383.34 952.92 414.587 945.69 428.819C941.233 437.591 931.313 442.15 922.383 444.927C922.855 433.783 924.769 422.717 925.024 411.524C926.05 366.4 919.178 321.634 907.372 278.146Q899.472 249.511 888.986 221.718C885.56 212.429 882.535 202.544 877.051 194.225Q876.198 192.932 875.268 191.694Q874.338 190.455 873.335 189.275Q872.332 188.094 871.26 186.977Q870.188 185.859 869.05 184.809Q867.911 183.758 866.712 182.778Q865.512 181.798 864.256 180.893Q862.999 179.987 861.69 179.159Q860.382 178.331 859.025 177.584C845.855 170.176 831.019 168.383 816.442 172.438C805.029 175.613 794.042 183.682 784.167 190.061C751.743 211.002 720.878 233.614 692.745 260.127Q683.411 269.062 674.477 278.396C669.768 283.271 665.116 288.885 659.45 292.683C650.798 298.484 640.199 300.939 630.311 303.724C627.35 292.793 623.707 282.188 620.36 271.383L607.192 227.976Q587.614 162.625 566.279 97.8262L550.995 51.423C547.52 40.6683 542.731 22.6009 537.323 13.284C532.751 5.40533 524.701 2.23353 516.386 0Z"/>
	<path fill="#FEFEFE" d="M0 0L508.782 0C500.08 2.39422 492.049 5.37598 487.265 13.6897C481.343 23.9815 477.066 41.3559 473.375 53.1947C470.15 63.5374 466.603 73.7913 463.272 84.1021Q438.386 158.663 414.807 233.648L401.14 276.673C398.255 285.961 395.698 295.458 392.155 304.516C383.432 302.558 374.281 300.471 366.718 295.473C357.531 289.401 348.081 276.409 339.755 268.518Q328.463 257.723 316.683 247.463Q304.903 237.203 292.66 227.5Q280.418 217.796 267.739 208.67Q255.061 199.543 241.973 191.014C229.895 183.266 217.89 175.095 203.693 171.78Q202.348 171.464 200.989 171.216Q199.63 170.967 198.26 170.787Q196.89 170.606 195.513 170.494Q194.136 170.381 192.755 170.338Q191.374 170.294 189.993 170.319Q188.611 170.343 187.233 170.437Q185.854 170.53 184.482 170.692Q183.11 170.854 181.748 171.083Q180.385 171.313 179.036 171.61Q177.687 171.907 176.354 172.271Q175.021 172.635 173.708 173.064Q172.395 173.494 171.104 173.988Q169.814 174.482 168.55 175.04Q167.286 175.598 166.051 176.217Q164.816 176.837 163.614 177.517Q162.411 178.198 161.244 178.937Q159.638 179.972 158.1 181.107Q156.562 182.242 155.099 183.471Q153.636 184.701 152.254 186.02Q150.872 187.34 149.576 188.744Q148.28 190.149 147.075 191.632Q145.87 193.116 144.762 194.672Q143.653 196.229 142.645 197.852Q141.637 199.476 140.734 201.16C136.646 208.892 134.717 218.08 132.282 226.459Q126.533 246.083 121.105 265.799L113.718 292.823C111.746 299.806 109.461 306.83 107.987 313.934C106.721 320.041 105.883 325.576 109.587 331.069C112.475 335.352 116.882 338.262 121.597 340.178C117.922 355.63 120.056 372.179 119.473 387.841C114.061 387.851 109.309 388.669 105.26 392.626C98.0233 399.701 99.1645 411.495 99.311 420.788C99.45 429.6 100.567 438.394 100.971 447.195C94.2564 442.498 86.4668 440.501 81.4397 433.566C69.9588 417.728 78.9448 371.68 50.3412 376.102C45.8358 376.798 41.3641 379.425 38.7876 383.229C31.4739 394.026 34.2587 417.483 27.297 430.55C20.499 443.309 6.77663 443.059 0 453.874L0 0Z"/>
	<path fill="#471541" d="M93.0675 4.64251C97.1502 4.63298 100.745 5.15429 104.183 7.53631C113.471 13.9704 113.112 33.8717 114.783 44.3457C117.609 62.0627 121.967 79.1495 138.604 88.6315C143.057 91.1694 148.356 92.3369 152.46 95.4108C156.299 98.2857 158.911 102.264 159.494 107.07C161.519 123.746 148.196 125.021 137.515 131.519Q135.368 132.84 133.382 134.393Q131.397 135.946 129.597 137.712Q127.797 139.477 126.206 141.432Q124.615 143.388 123.253 145.509C112.573 161.921 115.673 195.43 106.43 206.293C103.064 210.249 98.9903 211.748 93.9368 212.197C90.4401 211.911 86.7854 210.821 83.767 209.023C81.4009 207.614 79.133 205.526 77.9614 202.997C74.5331 195.597 72.4411 170.755 69.816 160.504C66.4109 147.207 59.7784 136.382 47.3875 129.69C43.3856 127.529 38.9075 126.113 35.0471 123.718C31.219 121.344 27.816 117.625 26.9636 113.075C26.4084 110.111 26.7775 106.484 27.6528 103.616C30.9611 92.7766 41.2503 92.8326 49.5767 88.2829C54.8952 85.3768 59.5771 80.9572 62.9156 75.9093C71.3343 63.1801 72.9327 46.0706 75.1069 31.2999C75.998 25.2463 76.2419 17.3909 79.8433 12.3004C83.2172 7.53144 87.5406 5.7206 93.0675 4.64251Z"/>
	<path fill="#ADDCAA" d="M92.9501 100.608C94.4464 100.739 96.0107 100.836 97.441 101.327C99.9012 102.173 102.193 104.055 103.299 106.431C104.295 108.571 104.309 111.006 103.449 113.191C102.006 116.858 99.2108 118.317 95.8024 119.813C93.99 119.733 92.1956 119.75 90.5762 118.825C87.9413 117.321 85.833 114.945 85.0526 111.977Q84.9405 111.567 84.8696 111.148Q84.7987 110.728 84.7696 110.304Q84.7406 109.88 84.7538 109.455Q84.767 109.03 84.8222 108.608Q84.8775 108.187 84.9743 107.773Q85.071 107.359 85.2084 106.956Q85.3457 106.554 85.5222 106.167Q85.6988 105.78 85.9128 105.413C87.4544 102.81 90.0848 101.3 92.9501 100.608Z"/>
</svg>
