<?xml version="1.0" encoding="utf-8" ?>
<svg xmlns="http://www.w3.org/2000/svg" xmlns:xlink="http://www.w3.org/1999/xlink" width="731" height="731">
	<path fill="#471541" transform="matrix(0.713867 0 0 0.713867 -6.10352e-05 0)" d="M0 0L106.759 0L108.898 0L1024 0L1024 445.791L1024 459.363L1024 550.106L1024 617.914L1024 1024L954.582 1024L314.936 1024L160.708 1024L108.651 1024L0 1024L0 932.375L0 920.775L0 600.808L0 584.618L0 109.869L0 102.953L0 0Z"/>
	<path fill="#66426C" transform="matrix(0.713867 0 0 0.713867 -6.10352e-05 0)" d="M314.831 1023.55C332.24 1022.79 349.95 1023.4 367.391 1023.43Q420.636 1023.78 473.881 1023.57L805.763 1023.44C855.389 1023.48 905.07 1024.13 954.687 1023.59L954.582 1024L314.936 1024L314.831 1023.55Z"/>
	<path fill="#FEFEFE" transform="matrix(0.713867 0 0 0.713867 -6.10352e-05 0)" d="M1024 459.363L1024 550.106C1023.09 546.911 1022.79 543.587 1021.78 540.378C1017.93 528.066 1009.76 520.258 998.558 514.326C1009.29 502.744 1016.63 488.674 1020.74 473.449C1021.95 468.941 1022.5 464.229 1023.86 459.79C1023.91 459.647 1023.95 459.505 1024 459.363Z"/>
	<path fill="#E8C2D8" transform="matrix(0.713867 0 0 0.713867 -6.10352e-05 0)" d="M302.79 179.366C304.915 181.92 314.548 219.638 316.085 225.544Q305.078 233.563 293.952 241.415C290.938 243.216 288.023 245.253 285.081 247.171C288.049 238.659 289.935 229.534 292.026 220.755C295.332 206.872 298.555 193 302.79 179.366Z"/>
	<path fill="#FAC385" transform="matrix(0.713867 0 0 0.713867 -6.10352e-05 0)" d="M323.861 257.991C326.692 261.565 329.6 279.682 331.176 285.337L270.768 327.929L266.533 330.911C268.512 318.304 272.51 305.954 274.319 293.386C279.987 287.515 294.095 278.741 301.335 273.66C308.771 268.441 316.022 262.554 323.861 257.991Z"/>
	<path fill="#FEFEFE" transform="matrix(0.713867 0 0 0.713867 -6.10352e-05 0)" d="M0 932.375L0.126272 932.892C1.67524 939.448 2.23028 946.079 4.09295 952.616C10.4955 975.086 26.3785 993.369 46.0014 1005.53C60.407 1014.46 74.9741 1019.25 91.6826 1021.62C97.2505 1022.41 103.209 1022.67 108.651 1024L0 1024L0 932.375Z"/>
	<path fill="#FEFEFE" transform="matrix(0.713867 0 0 0.713867 -6.10352e-05 0)" d="M215.888 988.78Q239.449 988.634 263.007 989.021C265.857 993.802 268.953 998.391 272.794 1002.44C283.277 1013.49 299.222 1023.15 314.831 1023.55L314.936 1024L160.708 1024C164.151 1023.16 167.734 1022.77 171.206 1022.01C191.234 1017.65 205.066 1005.69 215.888 988.78Z"/>
	<path fill="#E8C2D8" transform="matrix(0.713867 0 0 0.713867 -6.10352e-05 0)" d="M752.864 544.123C768.231 543.984 783.655 544.524 799.028 544.652L799.077 595.314C799.09 604.304 799.655 613.642 798.942 622.592Q775.856 622.573 752.772 622.845L752.864 544.123Z"/>
	<path fill="#E8C2D8" transform="matrix(0.713867 0 0 0.713867 -6.10352e-05 0)" d="M337.408 322.52C339.624 324.778 348.583 377.504 350.016 385.456C345.582 391.238 340.544 395.026 334.013 398.241C315.046 407.578 295.935 406.342 276.375 399.706C268.74 396.781 262.915 392.451 257.333 386.559C257.403 384.265 257.159 381.917 257.031 379.625C270.832 368.676 285.736 358.665 300.205 348.612C312.644 339.969 324.898 331.061 337.408 322.52Z"/>
	<path fill="#D291D7" transform="matrix(0.713867 0 0 0.713867 -6.10352e-05 0)" d="M602.16 544.065C641.278 543.344 680.533 543.99 719.665 543.985L719.694 602.238C719.691 607.545 720.635 617.365 719.486 622.178L718.594 622.64C681.235 623.232 643.735 622.908 606.371 622.584C607.888 595.516 609.5 570.607 602.16 544.065Z"/>
	<path fill="#E8C2D8" transform="matrix(0.713867 0 0 0.713867 -6.10352e-05 0)" d="M615.806 385.718C620.973 385.17 627.313 386.653 632.275 388.069C641.912 390.82 650.477 395.518 658.912 400.812C693.573 422.567 724.277 458.061 743.804 493.858C746.04 497.958 749.537 504.216 747.901 508.981C747.401 510.436 746.497 511.299 745.105 511.906C744.946 511.975 744.778 512.024 744.611 512.073C741.437 513.001 738.565 512.033 735.798 510.507C730.757 507.727 725.931 503.775 721.204 500.45L695.799 482.888Q682.111 473.719 667.732 465.678Q653.353 457.636 638.375 450.774C633.563 448.492 628.5 445.947 623.008 446.556C618.577 447.047 614.5 449.929 611.814 453.399Q611.297 454.08 610.852 454.81Q610.407 455.54 610.039 456.312Q609.672 457.083 609.385 457.889Q609.098 458.694 608.894 459.524Q608.691 460.355 608.574 461.202Q608.457 462.049 608.426 462.903Q608.396 463.757 608.453 464.61Q608.511 465.463 608.655 466.306C609.424 470.738 612.268 474.338 615.861 476.906C622.874 481.921 632.34 484.197 640.159 487.919C652.979 494.022 667.508 502.917 679.182 510.984C650.299 511.623 621.355 511.395 592.463 511.495Q588.807 503.048 584.718 494.801C582.31 490.044 578.921 484.906 577.545 479.77C575.861 473.489 576.907 462.089 576.902 455.194L576.916 404.997Q577.887 403.556 579.025 402.243C588.409 391.465 601.851 386.685 615.806 385.718Z"/>
	<path fill="#FEFEFE" transform="matrix(0.713867 0 0 0.713867 -6.10352e-05 0)" d="M0 600.808C0.0418682 600.965 0.0864679 601.121 0.125604 601.279C1.51647 606.873 1.26754 613.223 1.83094 618.976Q3.2775 634.169 6.87684 649C21.8812 710.359 63.1985 767.361 116.911 800.779C98.7005 812.141 81.2547 824.87 63.6883 837.198C49.0651 847.46 33.3683 856.001 21.3829 869.511C12.444 879.587 6.30873 891.222 3.20102 904.356C1.95959 909.603 1.81231 915.808 0 920.775L0 600.808Z"/>
	<path fill="#D291D7" transform="matrix(0.713867 0 0 0.713867 -6.10352e-05 0)" d="M895.761 544.751Q924.718 544.392 953.676 544.543C963.926 544.594 974.385 544.266 984.597 545.032C984.968 545.319 985.344 545.602 985.698 545.909C989.205 548.952 989.743 551.846 989.954 556.3C990.55 568.92 990.093 581.771 990.097 594.413C990.1 600.964 991.035 609.294 989.756 615.651C989.443 617.203 988.636 618.571 987.538 619.697C986.053 621.219 984.551 621.75 982.498 622.121C976.277 623.244 969.234 622.644 962.913 622.655L926.422 622.68L832.53 622.602C831.58 596.752 831.999 570.786 831.985 544.919L895.761 544.751Z"/>
	<path fill="#FEFEFE" transform="matrix(0.713867 0 0 0.713867 -6.10352e-05 0)" d="M1024 617.914L1024 1024L954.582 1024L954.687 1023.59C964.383 1022.07 973.572 1018.69 980.625 1011.59C986.681 1005.5 990.244 997.699 991.4 989.242C992.992 977.594 992.02 964.811 992.016 953.046L991.986 885.343L991.954 654.344C996.11 653.284 1000.02 651.882 1003.72 649.69C1016.26 642.272 1020.63 631.377 1024 617.914Z"/>
	<path fill="#E8C2D8" transform="matrix(0.713867 0 0 0.713867 -6.10352e-05 0)" d="M921.929 387.684C924.893 387.278 928.095 387.217 931.078 387.392Q932.619 387.495 934.154 387.674Q935.688 387.853 937.212 388.107Q938.736 388.361 940.246 388.689Q941.755 389.017 943.247 389.418Q944.739 389.82 946.209 390.294Q947.679 390.769 949.124 391.315Q950.57 391.86 951.986 392.476Q953.403 393.092 954.788 393.777Q956.173 394.461 957.522 395.213Q958.872 395.965 960.183 396.782Q961.495 397.598 962.764 398.479Q964.034 399.359 965.259 400.3Q966.484 401.241 967.661 402.241Q968.838 403.242 969.965 404.298Q971.092 405.355 972.166 406.466Q973.24 407.576 974.258 408.738Q975.279 409.886 976.243 411.084Q977.206 412.282 978.109 413.525Q979.011 414.769 979.852 416.056Q980.692 417.343 981.467 418.67Q982.243 419.997 982.951 421.361Q983.66 422.724 984.301 424.121Q984.941 425.518 985.512 426.946Q986.082 428.373 986.582 429.826Q987.081 431.28 987.508 432.756Q987.934 434.233 988.287 435.728Q988.641 437.224 988.919 438.736Q989.198 440.247 989.402 441.77Q989.605 443.294 989.733 444.825Q989.861 446.357 989.913 447.893Q989.965 449.429 989.941 450.966Q989.917 452.502 989.817 454.036C988.695 471.539 981.408 486.341 968.234 497.893C960.948 504.282 951.053 509.274 941.571 511.311C935.378 512.642 921.916 511.859 914.884 511.89C896.478 511.973 877.555 512.869 859.212 511.586C870.839 502.691 885.272 493.814 898.348 487.18C906.606 482.99 917.627 479.337 924.84 473.808C929.514 470.225 931.104 466.264 931.862 460.622C932.138 457.173 930.818 453.437 928.811 450.665C926.302 447.2 922.565 444.839 918.287 444.368C910.182 443.474 899.95 449.68 892.908 453.197Q881.163 459.079 869.758 465.595Q858.352 472.111 847.321 479.242Q836.289 486.372 825.665 494.097Q815.041 501.821 804.855 510.115C815.432 485.992 823.453 469.813 839.382 448.752C859.16 422.601 888.051 392.417 921.929 387.684Z"/>
	<path fill="#E8C2D8" transform="matrix(0.713867 0 0 0.713867 -6.10352e-05 0)" d="M752.51 655.485L799.032 655.443L799.16 990.616L752.655 990.679C752.044 954.436 752.688 918.105 752.672 881.852L752.51 655.485Z"/>
	<path fill="#D291D7" transform="matrix(0.713867 0 0 0.713867 -6.10352e-05 0)" d="M599.934 655.904L719.84 655.996L719.69 817.341C719.781 852.174 720.804 887.252 719.552 922.06C715.971 916.545 714.505 908.321 712.1 902.078C707.599 890.391 702.631 878.604 697.128 867.362C684.05 840.647 664.58 813.028 643.59 791.889C637.336 785.591 630.545 779.856 623.829 774.06C613.785 765.392 603.472 757.12 592.316 749.904C582.593 743.615 572.36 738.275 562.04 733.049C579.048 710.813 592.604 682.918 599.934 655.904Z"/>
	<path fill="#D291D7" transform="matrix(0.713867 0 0 0.713867 -6.10352e-05 0)" d="M832.009 655.966L959.371 656.006L959.473 878.716L959.482 948.108C959.504 959.612 960.342 971.804 959.405 983.247C959.265 984.96 958.433 986.219 957.469 987.581C955.965 988.694 954.372 990.046 952.477 990.363C945.16 991.587 926.044 990.606 917.357 990.602L832.013 990.479L832.009 655.966Z"/>
	<path fill="#FEFEFE" transform="matrix(0.713867 0 0 0.713867 -6.10352e-05 0)" d="M562.04 733.049C572.36 738.275 582.593 743.615 592.316 749.904C603.472 757.12 613.785 765.392 623.829 774.06C630.545 779.856 637.336 785.591 643.59 791.889C664.58 813.028 684.05 840.647 697.128 867.362C702.631 878.604 707.599 890.391 712.1 902.078C714.505 908.321 715.971 916.545 719.552 922.06L719.473 990.563L424.955 990.492L350.119 990.493C340.121 990.489 323.886 991.75 314.736 989.734C306.036 987.817 298.74 982.946 294.034 975.332C289.459 967.929 287.605 958.757 289.68 950.249Q289.931 949.199 290.254 948.17Q290.577 947.14 290.97 946.135Q291.364 945.13 291.826 944.154Q292.288 943.179 292.816 942.238Q293.344 941.297 293.936 940.395Q294.528 939.492 295.182 938.633Q295.835 937.774 296.546 936.962Q297.257 936.15 298.022 935.389C310.699 922.542 328.064 925.449 344.529 925.484L384.142 925.502C391.244 925.481 399.776 926.314 405.994 922.26C409.689 919.85 412.045 916.068 412.808 911.743C413.575 907.391 412.723 902.899 410.118 899.295C406.929 894.881 401.96 892.642 396.677 891.959C389.152 890.985 380.636 891.902 373.003 891.89L339.767 891.82C329.088 891.799 318.106 891.209 307.616 893.528Q305.842 893.935 304.093 894.438Q302.344 894.94 300.625 895.537Q298.906 896.134 297.222 896.823Q295.537 897.512 293.893 898.292Q292.249 899.071 290.649 899.939Q289.049 900.806 287.499 901.759Q285.949 902.712 284.452 903.748Q282.956 904.784 281.518 905.899C265.656 918.121 257.579 934.844 255.028 954.422L222.492 953.761C221.313 942.111 218.929 932.86 212.559 922.842C203.813 909.088 189.236 897.67 173.149 894.127C159.449 891.109 144.72 892.368 130.751 892.303C123.864 892.271 116.186 891.585 109.4 892.701C107.043 893.089 104.804 893.87 102.821 895.22C99.141 897.726 96.8014 901.797 95.9792 906.125Q95.8197 906.979 95.7464 907.844Q95.673 908.709 95.6865 909.577Q95.7 910.446 95.8002 911.308Q95.9004 912.171 96.0863 913.019Q96.2722 913.867 96.542 914.692Q96.8118 915.518 97.1627 916.312Q97.5137 917.106 97.9422 917.861Q98.3708 918.616 98.8727 919.325C100.973 922.237 103.871 924.148 107.313 925.114C112.312 926.517 118.05 926.005 123.216 925.974C134.878 925.903 150.988 924.8 162.201 926.499C170.618 927.774 178.474 932.045 183.535 938.975C188.56 945.856 191.018 955.07 189.585 963.506Q189.446 964.284 189.269 965.054Q189.092 965.824 188.876 966.584Q188.661 967.344 188.408 968.092Q188.156 968.841 187.866 969.576Q187.577 970.311 187.251 971.031Q186.925 971.751 186.565 972.454Q186.204 973.157 185.808 973.841Q185.413 974.525 184.984 975.188Q184.555 975.852 184.094 976.493Q183.633 977.135 183.141 977.753Q182.648 978.371 182.126 978.963Q181.604 979.556 181.052 980.122Q180.501 980.688 179.923 981.226Q179.344 981.764 178.74 982.273Q178.135 982.782 177.506 983.26Q176.877 983.738 176.225 984.184C171.939 987.135 167.035 988.763 161.94 989.664C154.384 991.001 146.536 990.545 138.889 990.552C124.2 990.564 109.823 990.864 95.2967 988.248C75.1539 984.62 54.8914 975.857 42.9342 958.491C34.7222 946.563 31.8465 930.705 34.464 916.548Q34.8011 914.752 35.2601 912.984Q35.7191 911.216 36.298 909.483Q36.8768 907.75 37.5727 906.061Q38.2686 904.372 39.0783 902.735Q39.888 901.097 40.8078 899.518Q41.7276 897.94 42.7531 896.428Q43.7786 894.916 44.905 893.478Q46.0315 892.04 47.2536 890.682C55.5212 881.566 73.3597 871.074 83.9107 863.827L149.607 818.831C162.59 826.464 176.711 832.164 190.933 837.051C238.612 853.436 290.82 860.039 341.014 854.257C416.921 845.513 489.858 812.546 542.583 756.507C549.501 749.154 555.767 740.961 562.04 733.049Z"/>
	<path fill="#FEFEFE" transform="matrix(0.713867 0 0 0.713867 -6.10352e-05 0)" d="M382.879 390.988C386.898 391.17 390.041 390.902 393.708 389.021C399.178 386.215 404.384 381.48 409.381 377.83Q421.091 369.298 433.257 361.428Q446.849 352.784 460.906 344.919C477.989 335.533 495.781 327.053 513.572 319.109C519.75 316.35 526.326 312.798 532.851 311.045C534.407 310.627 536.114 310.451 537.708 310.749C540.568 311.286 541.945 313.358 543.417 315.655C544.218 323.819 543.805 332.184 543.776 340.384L543.665 381.334L543.64 448.316C543.595 461.483 543.844 474.762 543.092 487.907C554.019 507.21 563.786 525.7 569.453 547.296C572.03 557.114 573.192 566.978 574.193 577.044Q574.527 580.176 574.755 583.318Q574.984 586.459 575.108 589.606Q575.232 592.754 575.251 595.903Q575.269 599.053 575.183 602.202Q575.097 605.35 574.905 608.494Q574.714 611.638 574.417 614.774Q574.121 617.91 573.72 621.034Q573.32 624.158 572.815 627.267Q572.31 630.376 571.702 633.467Q571.093 636.557 570.382 639.625Q569.671 642.694 568.858 645.737Q568.045 648.78 567.131 651.794Q566.217 654.808 565.202 657.79Q564.188 660.772 563.075 663.719Q561.961 666.665 560.75 669.573Q559.539 672.48 558.232 675.346C554.352 683.786 549.641 691.81 544.973 699.83C527.433 727.655 505.493 750.778 478.364 769.443C409.63 816.733 327.355 832.586 245.517 817.377C176.935 804.632 109.038 766.665 69.1945 708.437Q67.4522 705.916 65.7877 703.343Q64.1232 700.77 62.538 698.147Q60.9527 695.524 59.4483 692.855Q57.9438 690.185 56.5215 687.47Q55.0993 684.756 53.7605 681.999Q52.4217 679.242 51.1676 676.446Q49.9136 673.65 48.7454 670.817Q47.5773 667.984 46.4962 665.116Q45.415 662.249 44.4219 659.35Q43.4288 656.451 42.5246 653.522Q41.6204 650.594 40.8059 647.64Q39.9915 644.686 39.2676 641.708Q38.5437 638.73 37.911 635.732Q37.2783 632.733 36.7374 629.717Q36.1965 626.7 35.7479 623.669Q35.2993 620.637 34.9434 617.594Q34.5876 614.55 34.3247 611.496Q34.0619 608.443 33.8923 605.383Q33.7228 602.323 33.6467 599.26Q33.5706 596.196 33.5881 593.132Q33.6055 590.067 33.7164 587.005Q33.8274 583.942 34.0317 580.885Q34.236 577.827 34.5336 574.777Q34.8311 571.727 35.2216 568.687Q35.6121 565.648 36.0952 562.622Q36.5782 559.595 37.1534 556.585Q37.7286 553.575 38.3953 550.584Q39.0621 547.593 39.8198 544.624Q40.5775 541.654 41.4255 538.709Q42.2735 535.764 43.211 532.847Q44.1484 529.929 45.1745 527.042Q46.2005 524.154 47.3142 521.299C49.8662 514.559 52.6524 507.795 55.9354 501.376C58.3076 496.738 61.4319 492.181 63.3172 487.35C63.9476 485.734 64.1873 483.935 64.2595 482.212C64.8656 467.746 64.0251 452.942 64.0012 438.43L64.3052 350.799C64.3371 344.208 63.5315 320.027 64.6408 315.456C65.196 313.168 67.738 311.643 69.5816 310.498C91.6547 310.159 165.158 354.882 185.159 368.594C191.063 372.642 196.804 376.991 202.493 381.336C207.423 385.102 212.121 389.272 217.813 391.836C220.179 391.681 222.429 391.218 224.743 390.738Q225.373 393.373 226.301 395.919Q227.229 398.464 228.442 400.887C236.251 416.465 253.071 427.153 269.167 432.47C295.472 441.159 324.473 439.877 349.247 427.222C364.658 419.35 377.462 407.758 382.879 390.988Z"/>
	<path fill="#471541" transform="matrix(0.713867 0 0 0.713867 -6.10352e-05 0)" d="M411.828 579.502C415.083 579.352 417.986 579.366 421.072 580.544C425.185 582.115 428.206 585.187 429.899 589.235C432.472 595.387 432.502 622.427 429.843 628.44C427.694 633.297 423.683 635.356 418.956 637.151C415.538 637.649 412.413 637.733 409.088 636.577C405.301 635.261 402.419 632.378 400.716 628.789C397.807 622.66 398.001 596.044 400.424 589.534C402.492 583.978 406.693 581.727 411.828 579.502Z"/>
	<path fill="#471541" transform="matrix(0.713867 0 0 0.713867 -6.10352e-05 0)" d="M188.896 579.585C192.443 579.388 195.664 579.32 199.02 580.675C202.727 582.173 205.452 585.073 206.994 588.736C209.718 595.207 209.757 622.841 206.912 629.054C204.767 633.738 200.397 636.36 195.806 638.193C192.123 638.984 188.048 638.898 184.594 637.289C180.58 635.418 177.875 631.638 176.52 627.51C174.913 622.617 174.885 599.943 175.705 594.063C176.013 591.857 176.571 589.633 177.636 587.663C180.186 582.948 184.045 581.136 188.896 579.585Z"/>
	<path fill="#E8C2D8" transform="matrix(0.713867 0 0 0.713867 -6.10352e-05 0)" d="M82.6364 615.084C90.0318 614.554 125.536 618.203 131.755 620.946C135.288 622.505 138.184 625.239 139.495 628.918C140.703 632.307 140.346 635.924 138.796 639.141C136.803 643.279 133.925 645.638 129.628 647.046C122.463 647.997 84.6229 644.321 78.4866 641.42C75.4134 639.967 73.0247 636.882 71.9199 633.706Q71.6847 633.03 71.5198 632.333Q71.3549 631.637 71.2621 630.927Q71.1692 630.217 71.1494 629.501Q71.1296 628.786 71.183 628.072Q71.2364 627.358 71.3624 626.653Q71.4885 625.949 71.6859 625.26Q71.8833 624.572 72.15 623.908Q72.4167 623.244 72.7499 622.61C74.9765 618.408 78.2698 616.527 82.6364 615.084Z"/>
	<path fill="#E8C2D8" transform="matrix(0.713867 0 0 0.713867 -6.10352e-05 0)" d="M135.644 667.561C138.554 667.24 140.811 667.552 143.577 668.582C147.278 669.961 150.69 672.208 152.251 675.975C153.612 679.261 153.817 683.573 152.272 686.836C149.671 692.33 120.993 716.352 114.945 720.161C113.724 720.93 112.323 721.424 110.969 721.903C107.41 722.275 103.688 722.459 100.302 721.101C97.4058 719.94 95.2706 717.648 94.1291 714.758C92.6329 710.971 92.4825 705.939 94.1817 702.188C95.0645 700.239 96.6017 698.647 98.1353 697.189C104.861 690.796 112.516 685.244 119.666 679.326C123.489 676.162 127.255 672.305 131.39 669.586C132.687 668.733 134.213 668.142 135.644 667.561Z"/>
	<path fill="#E8C2D8" transform="matrix(0.713867 0 0 0.713867 -6.10352e-05 0)" d="M464.417 667.102C467.117 667.239 468.978 667.944 471.319 669.297C478.562 673.485 484.741 679.338 491.357 684.414C497.493 689.122 504.953 693.586 510.282 699.161C512.052 701.013 513.399 703.39 514 705.888Q514.149 706.496 514.236 707.115Q514.323 707.735 514.347 708.36Q514.371 708.985 514.333 709.609Q514.294 710.234 514.193 710.851Q514.093 711.468 513.93 712.072Q513.768 712.677 513.546 713.261Q513.324 713.846 513.044 714.406Q512.764 714.965 512.43 715.494C509.787 719.711 506.238 721.388 501.616 722.495C498.308 722.963 495.263 721.362 492.507 719.711C483.264 714.174 459.871 697.536 453.717 689.362C452.657 687.953 452.012 686.393 451.622 684.681C450.756 680.874 451.304 676.511 453.447 673.2C455.981 669.282 460.082 667.923 464.417 667.102Z"/>
	<path fill="#E8C2D8" transform="matrix(0.713867 0 0 0.713867 -6.10352e-05 0)" d="M519.769 614.667C523.318 613.945 526.644 614.3 529.819 616.096C533.445 618.147 536.14 621.991 537.104 626.019C538.004 629.779 536.965 633.337 534.825 636.492C533.628 638.258 532.034 639.93 530.065 640.823C525.434 642.922 519.616 643.316 514.642 644.341C504.228 646.487 493.848 648.627 483.385 650.53C478.44 651.3 474.275 651.056 470.121 647.939C467.006 645.601 465.081 642.123 464.569 638.279C464.113 634.858 464.934 631.517 467.102 628.812C468.787 626.71 471.064 625.182 473.54 624.166C477.599 622.502 482.185 621.936 486.463 621.011C497.577 618.608 508.483 616.207 519.769 614.667Z"/>
	<path fill="#E8C2D8" transform="matrix(0.713867 0 0 0.713867 -6.10352e-05 0)" d="M108.161 378.99C109.797 378.833 111.43 378.929 112.983 379.498C119.054 381.722 124.944 385.625 130.747 388.527C137.402 391.855 159.745 401.026 163.84 404.77C165.972 406.719 165.526 410.7 165.497 413.335C158.867 418.833 150.114 422.705 142.605 426.963C137.839 429.602 113.113 444.432 109.84 444.535C108.611 444.573 105.828 443.764 105.033 442.674C104.034 441.306 103.862 438.044 103.745 436.395C103.107 427.373 103.648 417.815 103.601 408.743C103.559 400.807 102.569 390.045 103.84 382.442C104.886 380.738 106.483 379.981 108.161 378.99Z"/>
	<path fill="#E8C2D8" transform="matrix(0.713867 0 0 0.713867 -6.10352e-05 0)" d="M498.608 373.035C500.051 373.137 500.919 373.205 502.152 374.067C502.812 375.16 503.17 376.028 503.225 377.321C503.332 379.876 502.788 382.502 502.791 385.084C502.799 392.231 503.065 399.385 503.09 406.537C503.125 416.656 503.925 427.535 502.902 437.595C502.677 439.812 502.407 442.057 500.613 443.557C495.569 444.473 468.854 427.16 462.68 423.439C454.682 418.256 441.89 414.657 436.916 406.288C443.953 399.085 457.555 394.174 466.655 389.514L498.608 373.035Z"/>
	<path fill="#471541" transform="matrix(0.713867 0 0 0.713867 -6.10352e-05 0)" d="M305.048 629.722C308.304 630.172 311.58 631.121 314.239 633.113C324.837 641.056 319.225 662.527 320.929 674.258C321.303 676.832 322.916 678.995 325.046 680.427C326.911 681.682 329.27 682.672 331.54 682.049C337.489 680.417 338.634 672.253 341.583 667.706C343.913 664.113 347.59 661.358 351.84 660.568C356.115 659.773 360.731 660.751 364.25 663.299C367.868 665.919 370.73 670.278 371.266 674.772C372.296 683.409 367.165 693.753 361.901 700.27C355.357 708.374 345.554 713.933 335.149 714.943C322.853 716.138 313.348 712.124 304.011 704.464C302.262 705.927 300.507 707.38 298.592 708.624C289.494 714.533 278.619 716.836 267.995 714.516C256.996 712.115 248.855 705.612 242.933 696.152C238.936 689.769 235.225 681.259 237.164 673.644C238.255 669.356 240.75 665.602 244.645 663.399C248.4 661.275 253.461 660.613 257.624 661.782C266.432 664.254 267.522 672.441 271.236 679.3C273.89 680.888 276.563 681.965 279.742 681.688C290.13 680.785 286.318 651.849 287.601 644.367C288.19 640.933 289.51 637.685 291.86 635.074C295.45 631.084 299.936 630.081 305.048 629.722Z"/>
	<path fill="#FEFEFE" transform="matrix(0.713867 0 0 0.713867 -6.10352e-05 0)" d="M0 0L106.759 0L108.898 0L1024 0L1024 445.791L1023.77 444.838C1022.35 438.713 1022.24 432.339 1020.58 426.198C1014.26 402.89 998.051 380.926 977.733 367.958C958.167 355.469 932.496 350.178 909.753 355.384C863.858 365.891 820.425 412.363 796.366 451.009C789.123 462.644 782.93 474.856 776.685 487.042C754.711 443.707 726.401 406.146 685.98 378.393C673.353 369.723 659.58 361.871 644.947 357.114C622.467 349.807 599.195 350.869 578.21 361.933C577.77 362.166 577.334 362.408 576.902 362.657Q576.573 348.744 576.576 334.828C576.547 317.271 577.235 301.869 563.516 288.719C555.961 281.477 545.052 277.618 534.621 277.977C529.869 278.141 524.995 279.202 520.485 280.672C511.738 283.523 503.224 287.889 494.829 291.677C469.636 303.046 444.831 315.31 421.32 329.891C406.655 338.986 392.881 349.106 379.002 359.317C376.45 346.251 374.539 333.08 372.022 320.014C362.877 272.554 352.717 224.448 338.778 178.134C335.305 166.594 332.315 153.406 326.785 142.69C324.648 138.548 321.876 135 317.998 132.329C312.352 128.439 304.61 126.537 297.884 127.973C290.763 129.492 284.943 133.764 281.095 139.906C273.666 151.764 266.725 185.376 263.19 200.045C256.175 229.158 248.811 258.157 242.476 287.431L231.861 337.885C230.883 342.364 230.219 346.997 229.096 351.43C228.53 353.661 228.165 354.974 225.837 355.615C221.27 354.672 202.03 340.041 196.535 336.378C169.678 318.474 106.081 280.539 75.88 277.294C66.8539 276.324 57.1526 278.145 49.4717 283.131C41.0075 288.625 34.281 298.195 32.2052 308.112C29.7376 319.901 31.0254 334.487 31.0486 346.585L31.1188 437.718L31.0806 462.172C31.081 466.535 31.4969 471.489 30.8732 475.791C30.0584 481.412 19.9715 501.383 17.283 508.072C13.017 518.686 9.80508 529.605 6.92296 540.663C5.23008 547.158 3.67188 553.812 2.79465 560.469C2.01491 566.386 1.9009 579.971 0 584.618L0 109.869L0 102.953L0 0Z"/>
	<path fill="#471541" transform="matrix(0.713867 0 0 0.713867 -6.10352e-05 0)" d="M452.745 111.613C456.474 111.253 460.034 111.345 463.49 112.949C465.245 113.763 466.769 114.911 468.183 116.22C471.31 119.117 473.902 122.675 476.943 125.689C482.231 130.931 488.226 135.725 492.886 141.557C494.548 143.637 495.987 145.91 496.794 148.465C498.13 152.692 497.36 157.444 495.301 161.317C492.89 165.854 488.934 167.992 484.224 169.452C480.687 169.927 477.41 169.707 474.072 168.372C467.418 165.713 442.753 140.353 440.297 134.021C438.782 130.114 438.798 124.941 440.578 121.118C442.907 116.118 447.763 113.345 452.745 111.613Z"/>
	<path fill="#471541" transform="matrix(0.713867 0 0 0.713867 -6.10352e-05 0)" d="M805.875 227.585C809.483 227.418 812.556 227.302 815.973 228.78C819.964 230.505 823.173 234.205 824.699 238.239C826.13 242.023 826.054 246.683 824.204 250.324C822.89 252.913 796.573 280.726 792.923 283.749C791.111 285.251 789.383 286.083 787.144 286.76C783.415 287.459 780.055 287.398 776.531 285.777C772.507 283.926 769.146 280.374 767.614 276.214C766.146 272.227 766.187 267.35 768.02 263.481C770.63 257.971 793.465 235.164 799.043 230.99C801.199 229.376 803.375 228.49 805.875 227.585Z"/>
	<path fill="#471541" transform="matrix(0.713867 0 0 0.713867 -6.10352e-05 0)" d="M707.581 11.5605C711.711 11.5859 715.9 12.0556 719.289 14.6479C726.817 20.4062 725.624 31.1009 726.661 39.4851C729.412 61.7189 746.139 78.6678 767.83 83.1843C775.895 84.8636 786.223 83.4302 792.934 88.8884C796.36 91.6745 798.112 95.6954 798.483 100.039C798.898 104.905 798.241 108.784 794.869 112.524C788.02 120.122 781.062 118.176 772.208 118.715C768.02 118.97 763.882 120.316 759.981 121.788C743.397 128.046 731.068 141.423 726.763 158.739C724.329 168.529 727.998 180.04 720.558 188.214C717.872 191.165 713.63 192.016 709.805 192.212C707.48 192.126 705.359 191.854 703.187 190.969C691.296 186.125 693.219 175.349 692.208 165.045Q691.844 161.279 690.912 157.613Q689.981 153.946 688.503 150.464C681.223 133.307 664.491 121.69 646.266 119.154C639.892 118.268 632.87 118.88 626.867 116.261C622.997 114.572 619.617 111.63 618.232 107.548C616.769 103.239 616.87 97.3484 619.057 93.2887C625.384 81.5397 644.525 85.9444 656.732 82.3267C676.63 76.4297 689.889 60.1682 692.205 39.6311C692.947 33.0558 692.24 25.1077 695.594 19.2352C698.373 14.3694 702.469 12.8593 707.581 11.5605Z"/>
	<path fill="#FAC385" transform="matrix(0.713867 0 0 0.713867 -6.10352e-05 0)" d="M709.411 82.8393C712.287 84.8577 714.912 89.0965 717.403 91.7821C720.503 95.1251 723.782 98.3228 727.012 101.541C720.027 106.68 714.603 113.178 709.156 119.847C702.964 113.932 697.692 107.301 691.25 101.543Q700.545 92.3995 709.411 82.8393Z"/>
	<path fill="#471541" transform="matrix(0.713867 0 0 0.713867 -6.10352e-05 0)" d="M0 0L106.759 0L108.898 0C114.214 1.21798 119.302 3.27725 122.328 8.11626C126.414 14.6499 124.705 24.3633 125.652 31.7955C129.257 60.1015 149.526 82.5049 177.022 89.5723C181.201 90.6463 185.535 91.4515 189.847 91.7123C198.554 92.2389 205.59 90.8605 210.936 99.5617C213.384 103.546 214.189 108.447 212.881 112.962Q212.654 113.749 212.349 114.509Q212.044 115.269 211.664 115.994Q211.284 116.72 210.832 117.403Q210.38 118.086 209.862 118.72Q209.343 119.354 208.763 119.932Q208.184 120.51 207.548 121.027Q206.913 121.544 206.229 121.994Q205.544 122.444 204.818 122.822C198.343 126.125 190.582 124.231 183.643 125.025C157.296 128.04 136.326 147.69 127.66 172.089C126.144 176.356 125.016 180.75 124.555 185.261C123.489 195.69 125.95 209.849 114.356 215.182C109.828 217.265 103.911 217.325 99.3106 215.428C95.3071 213.778 92.4619 210.208 90.9709 206.221C88.3808 199.296 90.0293 191.38 89.2762 184.147C86.9094 161.415 70.5033 140.652 50.2577 130.87Q47.3571 129.463 44.3458 128.311Q41.3345 127.159 38.235 126.272Q35.1356 125.384 31.971 124.768Q28.8065 124.151 25.6006 123.81C10.9017 122.139 7.18952 125.277 0 109.869L0 102.953L0 0Z"/>
	<path fill="#FAC385" transform="matrix(0.713867 0 0 0.713867 -6.10352e-05 0)" d="M106.752 78.8517C110.072 82.1255 112.707 86.918 115.839 90.5236C121.843 97.4351 128.666 102.928 135.678 108.75C123.644 117.782 115.93 126.001 107.652 138.519C101.205 126.286 89.2725 115.733 77.9451 107.973C89.3192 100.878 100.28 90.6714 106.752 78.8517Z"/>
	<path fill="#FEFEFE" transform="matrix(0.713867 0 0 0.713867 -6.10352e-05 0)" d="M0 0L106.759 0C101.23 1.54747 96.6575 3.3635 93.7574 8.72561C90.1603 15.3762 91.7173 23.6187 90.7385 30.8875C87.2714 56.6381 69.2149 79.4264 44.2439 87.4051C38.9227 89.1053 33.2682 90.0327 27.7012 90.4058C18.2675 91.0381 6.97328 88.5856 1.78121 98.9172C1.124 100.225 0.560272 101.6 0 102.953L0 0Z"/>
</svg>
