<?xml version="1.0"?>
<svg width="1024" height="1024" xmlns="http://www.w3.org/2000/svg" xmlns:svg="http://www.w3.org/2000/svg">
 <g class="layer">
  <title>Layer 1</title>
  <path d="m0,0l102.18,0l7.55,0l407.67,0l11.79,0l393.14,0l10.87,0l90.8,0l0,456.15l0,19.46l0,233.56l0,110.69l0,204.14l-54.98,0l-461.79,0l-507.23,0l0,-664.67l0,-12.87l0,-240.53l0,-8.4l0,-97.53zm0,0l0,97.53l0,8.4l0,240.53l0,12.87l0,664.67l507.23,0c-0.17,-0.82 -0.24,-1.09 -0.97,-1.58c-1.2,-0.81 -3.09,-1.32 -4.47,-1.89c-4.59,-1.91 -8.78,-3.97 -12.32,-7.57c-5.76,-5.86 -7.34,-12.73 -8.55,-20.6c-2.66,-17.45 -0.83,-35.98 -0.74,-53.61l0.01,-92.05c-8.82,-1.83 -17.63,-4.38 -23.97,-11.19c-4.19,-4.49 -6.78,-10.82 -7.85,-16.84c-1.18,-6.62 -0.89,-13.87 -0.87,-20.59l0.37,-33.44c0.06,-14.84 -0.85,-29.7 -0.26,-44.53c0.43,-10.92 2.13,-22.66 10.84,-30.32c11.52,-10.12 29.67,-7.97 43.89,-7.95c6.82,0 13.69,-0.33 20.5,-0.05c-5.93,-7.74 -13.07,-13.82 -17.84,-22.56c-8.37,-15.29 -8.84,-34.52 -4.03,-50.99q0.5,-1.78 1.1,-3.54q0.59,-1.75 1.27,-3.47q0.68,-1.73 1.45,-3.41q0.77,-1.69 1.61,-3.33q0.85,-1.65 1.78,-3.25q0.93,-1.6 1.94,-3.15q1.01,-1.56 2.1,-3.06q1.08,-1.5 2.24,-2.94q1.16,-1.45 2.39,-2.83q1.23,-1.39 2.52,-2.71q1.3,-1.32 2.66,-2.57q1.36,-1.26 2.79,-2.45q1.42,-1.18 2.9,-2.29q1.48,-1.12 3.01,-2.15q1.54,-1.04 3.12,-2q1.58,-0.96 3.21,-1.84c25.6,-13.76 50.35,-7.84 76.6,-0.01c-2.36,-6.72 -5.91,-13.11 -8.99,-19.53c-4.88,-10.18 -9.62,-20.44 -14.68,-30.53c-26.87,7.28 -54.9,18.78 -83.21,14.1c-22.96,-3.79 -44.06,-17.77 -57.48,-36.6q-0.64,-0.9 -1.25,-1.82q-0.61,-0.91 -1.2,-1.84q-0.59,-0.92 -1.15,-1.87q-0.57,-0.94 -1.11,-1.9q-0.54,-0.95 -1.06,-1.92q-0.52,-0.97 -1.02,-1.95q-0.49,-0.98 -0.96,-1.97q-0.47,-1 -0.92,-2q-0.44,-1.01 -0.87,-2.02q-0.42,-1.02 -0.81,-2.04q-0.4,-1.03 -0.77,-2.06q-0.37,-1.04 -0.72,-2.08q-0.34,-1.04 -0.66,-2.09q-0.32,-1.06 -0.61,-2.11q-0.3,-1.06 -0.56,-2.13q-0.27,-1.07 -0.51,-2.14q-0.24,-1.07 -0.46,-2.15q-0.21,-1.08 -0.4,-2.16q-0.19,-1.08 -0.35,-2.17q-0.16,-1.08 -0.29,-2.18q-0.14,-1.09 -0.24,-2.18q-0.11,-1.09 -0.19,-2.19q-0.08,-1.1 -0.14,-2.19q-0.05,-1.1 -0.08,-2.2q-0.02,-1.1 -0.02,-2.2q0,-1.1 0.03,-2.19q0.02,-1.1 0.08,-2.2q0.05,-1.1 0.13,-2.19q0.08,-1.1 0.19,-2.19q0.11,-1.1 0.25,-2.19q0.13,-1.09 0.3,-2.18q0.16,-1.08 0.35,-2.17c6.57,-38.56 40.62,-57.95 62.94,-86.49c6.92,-8.83 11.44,-19.02 16.66,-28.87c10.82,-20.46 26.06,-35.47 44.69,-48.78c-3.54,-14.86 -6.31,-29.92 -9.45,-44.87l-18.26,-86.17l-13.07,-61.29c-2.66,-12.27 -11.6,-43.62 -10.35,-54.38c0.73,-6.25 5.38,-9.38 9.96,-12.96l-407.67,0l-7.55,0l-102.18,0zm529.19,0c11.65,9.31 18.65,22.91 26.74,35.2l20.84,31.48q30.87,46.37 61.2,93.1c13.44,20.66 26.54,41.48 40.33,61.91c13.08,-8.85 26.35,-17.47 39.33,-26.45c10.1,-7 19.91,-15.48 31.18,-20.52c3.71,-1.66 7.67,-2.55 11.73,-1.81q0.71,0.13 1.42,0.33q0.7,0.2 1.37,0.47q0.68,0.27 1.33,0.61q0.64,0.34 1.25,0.74q0.61,0.4 1.18,0.86q0.56,0.46 1.08,0.98q0.51,0.51 0.98,1.07q0.46,0.57 0.86,1.18c1.87,2.78 2.84,6.07 3.1,9.39c0.59,7.65 -0.92,15.77 -1.82,23.36c-1.53,12.81 -3.1,25.68 -2.89,38.6c10.27,2.19 20.81,3.97 30.84,7.14q2.54,0.81 5.05,1.74q2.51,0.92 4.97,1.95q2.47,1.03 4.89,2.16q2.42,1.14 4.79,2.38q2.37,1.23 4.68,2.57q2.31,1.34 4.57,2.77q2.25,1.44 4.44,2.97q2.19,1.53 4.31,3.16q2.13,1.62 4.18,3.34q2.05,1.71 4.02,3.51q1.98,1.8 3.87,3.69q1.9,1.88 3.71,3.84q1.81,1.97 3.54,4.01q1.73,2.04 3.37,4.15q1.63,2.11 3.18,4.29q1.54,2.18 2.99,4.43c12.55,19.36 18.42,41.2 18.58,64.15c0.05,8.49 -0.62,17.26 1.97,25.47c3.49,11.08 12.86,19.46 19.84,28.4q0.98,1.28 1.94,2.6q0.95,1.32 1.86,2.66q0.92,1.34 1.79,2.7q0.88,1.37 1.72,2.76q0.85,1.39 1.65,2.8q0.8,1.41 1.57,2.84q0.76,1.43 1.49,2.88q0.72,1.46 1.41,2.93q0.68,1.47 1.33,2.96q0.64,1.49 1.25,3q0.6,1.5 1.16,3.02q0.57,1.53 1.09,3.06q0.52,1.54 1,3.09q0.48,1.55 0.92,3.12q0.43,1.56 0.83,3.13q0.39,1.58 0.75,3.16q0.35,1.59 0.66,3.18q0.31,1.6 0.57,3.2q0.27,1.6 0.49,3.21q0.22,1.6 0.4,3.22q0.18,1.61 0.31,3.23q0.13,1.62 0.23,3.24q0.09,1.62 0.13,3.24q0.05,1.63 0.05,3.25q0,1.62 -0.04,3.24q-0.04,1.63 -0.13,3.25q-0.09,1.62 -0.22,3.24q-0.13,1.62 -0.3,3.23q-0.17,1.61 -0.39,3.22q-0.22,1.61 -0.48,3.21q-0.26,1.61 -0.57,3.2q-0.3,1.59 -0.65,3.18c-2.41,11.01 -6.89,21.18 -11.57,31.36c20.67,4.68 36.64,15.02 48.05,33.25q0.86,1.4 1.65,2.84q0.79,1.44 1.52,2.92q0.72,1.48 1.37,2.99q0.65,1.51 1.22,3.05q0.58,1.54 1.08,3.11q0.49,1.56 0.92,3.15q0.42,1.59 0.76,3.2q0.35,1.61 0.61,3.23q0.27,1.62 0.45,3.26q0.19,1.63 0.3,3.27q0.1,1.64 0.13,3.28q0.02,1.65 -0.03,3.29q-0.05,1.65 -0.19,3.28q-0.13,1.64 -0.34,3.27q-0.22,1.63 -0.51,3.25q-0.29,1.62 -0.67,3.22c-4.26,17.76 -15.46,29.42 -28.55,41.4q12.3,0.16 24.6,0.18c16.13,0.08 32.44,-0.3 44.6,12.1c3.51,3.58 7.44,13.79 10.59,15.4l0,-233.56l0,-19.46l0,-456.15l-90.8,0l-10.87,0l-393.14,0zm94.22,505.23c6.36,14.01 13.81,27.53 20.39,41.45c7.15,15.14 13,31.39 22.59,45.23c6.08,8.76 15.26,14.2 22.41,21.9c18.35,19.77 29.45,43.65 39.98,68.17l14.46,0.33c9.96,-29.07 28.02,-60.42 52.53,-79.33c-4.06,-8.19 -6.19,-17.5 -8.78,-26.23q-3.95,-13.03 -8.25,-25.96q-19.11,-57.59 -37.41,-115.46c-5.78,-18.02 -19.46,-54.26 -20.16,-71.44c3.45,-5.15 8.01,-6.96 13.49,-9.32c-2.74,-7.51 -6.06,-15.28 -6.99,-23.27c-1.28,-10.91 1.19,-21.79 2.29,-32.61l3.6,-38.14c1.16,-12.32 2.46,-24.53 2.46,-36.92c-12.67,7.49 -24.98,16.33 -37.1,24.71c-7.48,5.18 -14.88,11.39 -23.41,14.74c-9.47,3.73 -20.03,3.01 -30.01,3.74c-31.22,2.3 -63.87,13.1 -86.29,35.67c-18.36,18.48 -25.92,44.59 -43.06,64.01c-16.33,18.48 -41.67,34.93 -47.96,60.07q-0.33,1.3 -0.59,2.62q-0.26,1.31 -0.46,2.63q-0.2,1.33 -0.33,2.66q-0.13,1.33 -0.19,2.67q-0.07,1.34 -0.07,2.68q0.01,1.34 0.08,2.67q0.06,1.34 0.2,2.68q0.13,1.33 0.34,2.65q0.2,1.33 0.46,2.64q0.27,1.31 0.6,2.61q0.33,1.3 0.73,2.57q0.4,1.29 0.86,2.54q0.46,1.26 0.98,2.5q0.52,1.23 1.1,2.44q0.58,1.2 1.23,2.38q0.64,1.17 1.33,2.31c7.88,12.84 21.22,22.03 35.8,25.43c6.75,1.58 13.2,1.83 20.04,0.89c16.98,-2.35 33.72,-8.36 50.25,-12.8c27.32,-7.34 54.79,-14.16 82.05,-21.69c12.28,-3.38 25.85,-9.84 38.67,-9.58c6.11,0.13 11.58,2.94 14.81,8.2q0.43,0.68 0.79,1.41q0.36,0.72 0.64,1.48q0.28,0.75 0.49,1.53q0.21,0.78 0.34,1.58q0.13,0.8 0.18,1.61q0.04,0.8 0.01,1.61q-0.03,0.81 -0.14,1.61q-0.12,0.8 -0.31,1.58c-1.31,5.14 -5.24,8.83 -9.75,11.31c-11.78,6.47 -28.52,8.41 -41.63,11.72c-14.47,3.66 -28.8,7.9 -43.29,11.52zm-110.05,341.53c-0.66,6.28 -0.39,12.83 -0.43,19.16q-0.17,17.22 -0.07,34.43c0.12,30.08 -0.05,60.21 0.56,90.28c16.09,-0.21 172.42,0.32 173.7,-0.72c1.14,-24.84 0.19,-50.01 0.2,-74.89l0.05,-44.46c0.01,-7.89 0.31,-15.91 -0.08,-23.78q-86.96,-0.65 -173.93,-0.02zm271.33,0.15c-0.53,26.69 -0.06,53.47 -0.04,80.17c0.02,21.02 -0.57,42.25 0.16,63.25c38.5,-0.55 77.07,0.23 115.58,-0.11c10.44,-0.09 21.13,0.66 31.52,0.13c1.7,-47.8 -0.6,-95.75 0.57,-143.55c-31.17,-1.16 -62.57,-0.77 -93.76,-0.6c-17.87,0.1 -36.26,-0.67 -54.03,0.71zm207.71,-0.12c-0.72,34.29 -0.16,68.71 -0.13,103.01c0.01,14.31 1.4,34.45 -0.89,47.99c-1.05,6.19 -3.14,12.07 -7.86,16.45c-2.96,2.75 -14.73,6.48 -15.22,8.3l0.72,1.46l54.98,0l0,-204.14c-0.43,0.16 -0.92,0.23 -1.3,0.5c-1.69,1.14 -6.39,14.68 -16.6,21.06c-4.27,2.67 -8.88,4.05 -13.7,5.37z" fill="#4A1844" id="svg_1"/>
  <path d="m932.48,846.8l27.59,0.17q0.59,71.69 0.4,143.39c-9.5,0.23 -19.06,0.6 -28.56,-0.01c1.7,-47.8 -0.6,-95.75 0.57,-143.55z" fill="#ffffff" id="svg_2"/>
  <path d="m559.38,104.26c3.04,1.39 6.18,6.89 8.15,9.68c8.22,11.66 15.51,24.01 23.41,35.9l55.84,84.02q-4.2,0.4 -8.4,0.94q-12.34,1.2 -24.52,3.55q-12.18,2.35 -24.08,5.83c-2.55,-13.01 -5.75,-25.86 -8.51,-38.81l-13.45,-64.31c-2.64,-12.32 -6.64,-24.3 -8.44,-36.8z" fill="#D290D4" id="svg_3"/>
  <path d="m890.11,589.65c12.97,-1.71 26.21,-0.62 36.96,7.53c7.21,5.47 13.05,13.7 14.23,22.83c1.17,9.05 -1.96,17.4 -7.47,24.45c-18.21,23.31 -51.94,32.33 -80.18,35.62c-25.01,2.91 -50.19,1.37 -75.29,1.44c1.34,-2.6 2.63,-5.23 4.2,-7.7c1.73,0.28 3.46,0.35 5.22,0.36c30.18,0.29 84.7,-8.99 106.56,-30.65c5.73,-5.68 9.67,-12.77 9.5,-21.06q-0.06,-1.99 -0.4,-3.94q-0.34,-1.95 -0.95,-3.84c-1.52,-4.7 -9.55,-22.41 -12.38,-25.04z" fill="#9C60AA" id="svg_4"/>
  <path d="m734.66,354.57c14.43,41.92 27.41,84.43 41.22,126.57c11.86,36.2 24.73,72.17 35.77,108.62l-15.88,13.22c-4.06,-8.19 -6.19,-17.5 -8.78,-26.23q-3.95,-13.03 -8.25,-25.96q-19.11,-57.59 -37.41,-115.46c-5.78,-18.02 -19.46,-54.26 -20.16,-71.44c3.45,-5.15 8.01,-6.96 13.49,-9.32z" fill="#ffffff" id="svg_5" transform="matrix(1 0 0 1 0 0)"/>
  <path d="m782.56,673.82q1.59,-3.12 3.37,-6.14c23.45,-39.17 59.75,-67.04 104.18,-78.03c2.83,2.63 10.86,20.34 12.38,25.04q0.61,1.89 0.95,3.84q0.34,1.95 0.4,3.94c0.17,8.29 -3.77,15.38 -9.5,21.06c-21.86,21.66 -76.38,30.94 -106.56,30.65c-1.76,-0.01 -3.49,-0.08 -5.22,-0.36z" fill="#AD6AAC" id="svg_6"/>
  <path d="m720.5,716l32.01,0.01l0.31,273.7c-10.75,1.08 -21.56,0.74 -32.32,0.3l0,-274.01z" fill="#AD6AAC" id="svg_7"/>
  <path d="m567.94,588.64c13.2,-1.19 27.18,3.2 39.14,8.38c37.22,16.1 69.89,46.48 84.94,84.51q-17.82,0.06 -35.62,-0.58c-34.84,-3.17 -75.51,-4.17 -106,-23.35c-9.02,-5.67 -15.89,-13.31 -18.17,-23.98c-1.93,-8.99 0.44,-18.32 5.44,-25.93c7,-10.64 18.03,-16.53 30.27,-19.05z" fill="#9C60AA" id="svg_8"/>
  <path d="m764.63,284.91c14.6,1.25 28,4.6 40.95,11.68q1.24,0.69 2.46,1.41q1.22,0.72 2.42,1.49q1.19,0.76 2.36,1.56q1.17,0.8 2.32,1.63q1.14,0.84 2.26,1.71q1.12,0.88 2.21,1.79q1.09,0.9 2.15,1.85q1.06,0.94 2.08,1.92q1.03,0.97 2.03,1.98q1,1.01 1.96,2.05q0.96,1.04 1.89,2.11q0.93,1.07 1.83,2.17q0.89,1.1 1.75,2.23q0.86,1.13 1.68,2.28q0.83,1.16 1.61,2.34q0.79,1.18 1.54,2.39q0.74,1.2 1.45,2.43q0.71,1.23 1.38,2.48q0.67,1.25 1.29,2.52q0.63,1.27 1.22,2.56q0.59,1.29 1.13,2.6q0.55,1.31 1.05,2.64q0.5,1.32 0.96,2.66q0.47,1.35 0.88,2.7q0.42,1.36 0.79,2.72q0.38,1.37 0.71,2.75q0.33,1.38 0.61,2.77q0.29,1.39 0.53,2.79q0.24,1.39 0.43,2.8q0.2,1.4 0.35,2.81q0.15,1.41 0.25,2.83q0.11,1.41 0.17,2.83c0.7,14.63 -1.17,30.03 4.97,43.8c3.18,7.15 7.96,13.35 12.66,19.54c10.28,13.53 20.51,26.91 25.29,43.52c8.28,28.8 -1.56,52.65 -15.48,77.59c-5.69,4.82 -15.56,6.46 -22.54,9.06c-5.03,1.88 -9.94,4.08 -14.85,6.25q-9.95,-30.74 -20.48,-61.29l-37.8,-113.85l-13.06,-39.33c-2.95,-8.62 -6.89,-17.41 -8.26,-26.45c-2.11,-13.97 1.17,-30.33 2.85,-44.32z" fill="#D290D4" id="svg_9"/>
  <path d="m481.51,716.01l205.51,-0.04l-0.04,64.52c0,10.71 0.73,21.83 -0.15,32.49l-204.89,0.46q-0.87,-48.71 -0.43,-97.43z" fill="#D290D4" id="svg_10"/>
  <path d="m975.72,714.72c3.39,-0.18 7.41,-0.71 10.69,0.34c1.74,0.56 2.81,1.63 3.59,3.25c0.96,1.99 1.35,4.31 1.51,6.49c0.83,11.52 -0.08,23.36 -0.09,34.92c0,10.06 1.98,44.07 -0.63,51.41c-2.02,2 -5.71,2.15 -8.45,2.35c-8.02,0.57 -16.17,0.24 -24.2,0.17l-35.01,-0.16l-122.32,0.08q-7.93,0.15 -15.85,0.46q-0.84,-49.26 -0.12,-98.53l118.64,-0.42c24.07,-0.04 48.19,0.68 72.24,-0.36z" fill="#D290D4" id="svg_11"/>
  <path d="m514.09,425.05c3.38,-0.36 6.76,-0.03 9.95,1.24q0.76,0.29 1.48,0.67q0.73,0.37 1.41,0.82q0.69,0.45 1.32,0.97q0.63,0.51 1.21,1.09q0.58,0.58 1.09,1.22q0.52,0.63 0.96,1.32q0.45,0.68 0.83,1.41q0.37,0.73 0.66,1.49q0.33,0.82 0.57,1.67q0.24,0.85 0.39,1.72q0.16,0.87 0.22,1.75q0.07,0.87 0.05,1.76q-0.02,0.88 -0.13,1.75q-0.11,0.88 -0.31,1.74q-0.19,0.86 -0.47,1.7q-0.28,0.83 -0.64,1.64c-2.63,5.81 -7.31,8.45 -13.04,10.47c-3.5,0.1 -6.65,-0.12 -9.9,-1.54q-0.4,-0.18 -0.79,-0.37q-0.4,-0.2 -0.78,-0.41q-0.38,-0.22 -0.75,-0.45q-0.37,-0.23 -0.73,-0.49q-0.36,-0.25 -0.7,-0.52q-0.35,-0.27 -0.68,-0.56q-0.33,-0.29 -0.64,-0.59q-0.32,-0.31 -0.62,-0.63q-0.3,-0.32 -0.58,-0.66q-0.28,-0.33 -0.54,-0.68q-0.27,-0.35 -0.51,-0.72q-0.25,-0.36 -0.48,-0.73q-0.22,-0.38 -0.43,-0.77q-0.2,-0.38 -0.39,-0.78q-0.19,-0.4 -0.35,-0.81q-0.17,-0.4 -0.31,-0.82q-0.3,-0.83 -0.51,-1.68q-0.21,-0.86 -0.33,-1.73q-0.12,-0.88 -0.16,-1.76q-0.03,-0.88 0.02,-1.76q0.06,-0.88 0.2,-1.75q0.14,-0.87 0.37,-1.72q0.23,-0.85 0.55,-1.68q0.31,-0.82 0.71,-1.61c2.77,-5.39 7.28,-7.51 12.78,-9.21z" fill="#4A1844" id="svg_12"/>
  <path d="m613.51,337.58c4.1,-0.33 7.78,-0.12 11.47,1.88c4,2.16 6.81,5.88 8.06,10.23q0.26,0.89 0.43,1.81q0.17,0.91 0.24,1.83q0.08,0.93 0.06,1.86q-0.01,0.93 -0.12,1.85q-0.11,0.92 -0.31,1.83q-0.2,0.9 -0.49,1.78q-0.28,0.89 -0.66,1.73q-0.37,0.85 -0.83,1.66c-2.78,4.82 -7.03,7.04 -12.22,8.42c-4.07,0.33 -8.02,-0.07 -11.68,-1.97q-0.4,-0.2 -0.78,-0.43q-0.38,-0.22 -0.76,-0.46q-0.37,-0.25 -0.72,-0.51q-0.36,-0.26 -0.7,-0.54q-0.35,-0.29 -0.68,-0.58q-0.33,-0.3 -0.64,-0.62q-0.31,-0.31 -0.61,-0.65q-0.29,-0.33 -0.57,-0.67q-0.28,-0.35 -0.54,-0.71q-0.26,-0.36 -0.5,-0.73q-0.24,-0.38 -0.46,-0.76q-0.22,-0.39 -0.42,-0.78q-0.2,-0.4 -0.38,-0.81q-0.18,-0.4 -0.34,-0.82q-0.16,-0.41 -0.29,-0.84q-0.14,-0.42 -0.25,-0.85c-1.25,-4.64 -0.6,-9.84 1.93,-13.94c2.99,-4.83 7.45,-6.96 12.76,-8.21z" fill="#4A1844" id="svg_13"/>
  <path d="m1024,475.61c-4.4,0.75 -7.33,9.61 -11.68,12.3c-5.84,3.62 -14.69,4.07 -21.09,2.18q-0.62,-0.18 -1.23,-0.4q-0.61,-0.21 -1.21,-0.45q-0.59,-0.25 -1.18,-0.52q-0.58,-0.27 -1.15,-0.57q-0.57,-0.3 -1.13,-0.63q-0.55,-0.33 -1.09,-0.69q-0.53,-0.36 -1.05,-0.74q-0.52,-0.38 -1.02,-0.79q-0.5,-0.41 -0.98,-0.84q-0.47,-0.44 -0.93,-0.89q-0.46,-0.46 -0.89,-0.94q-0.43,-0.48 -0.84,-0.98q-0.41,-0.49 -0.79,-1.01q-0.38,-0.52 -0.74,-1.06q-0.35,-0.54 -0.68,-1.09q-0.33,-0.56 -0.63,-1.13c-3.39,-6.51 -3.6,-14.59 -1.16,-21.46q0.2,-0.57 0.42,-1.14q0.23,-0.56 0.48,-1.11q0.26,-0.55 0.54,-1.09q0.28,-0.54 0.58,-1.06q0.31,-0.52 0.64,-1.03q0.34,-0.51 0.69,-1q0.36,-0.49 0.74,-0.96q0.38,-0.47 0.78,-0.92q0.41,-0.46 0.83,-0.89q0.43,-0.43 0.88,-0.84q0.44,-0.41 0.91,-0.8q0.46,-0.39 0.95,-0.75q0.48,-0.37 0.99,-0.71q0.5,-0.34 1.02,-0.65q0.51,-0.32 1.05,-0.61q0.53,-0.29 1.08,-0.55q1.59,-0.73 3.26,-1.25q1.67,-0.52 3.39,-0.82q1.72,-0.3 3.47,-0.38q1.75,-0.07 3.49,0.07c16.6,1.42 16.49,14.3 23.28,16.74l0,19.46z" fill="#D290D4" id="svg_14"/>
  <path d="m705.11,36.1c5.96,-0.33 11.24,0.32 16.49,3.36q0.57,0.33 1.12,0.69q0.55,0.36 1.08,0.75q0.54,0.39 1.05,0.81q0.51,0.41 1,0.85q0.49,0.44 0.96,0.91q0.46,0.46 0.91,0.95q0.44,0.49 0.86,1q0.42,0.51 0.81,1.04q0.39,0.53 0.75,1.08q0.36,0.55 0.7,1.12q0.33,0.57 0.64,1.15q0.31,0.59 0.58,1.19q0.28,0.59 0.52,1.21q0.25,0.61 0.46,1.23q0.21,0.63 0.39,1.26q0.18,0.64 0.33,1.28c1.76,7.34 0.82,15.69 -3.29,22.08c-4.8,7.48 -11.77,10.55 -20.06,12.3c-6.23,0.4 -11.7,-0.35 -17.07,-3.76q-0.57,-0.36 -1.11,-0.75q-0.54,-0.38 -1.06,-0.8q-0.53,-0.41 -1.03,-0.85q-0.5,-0.44 -0.98,-0.9q-0.47,-0.46 -0.93,-0.95q-0.45,-0.48 -0.88,-0.99q-0.43,-0.51 -0.84,-1.04q-0.4,-0.53 -0.78,-1.08q-0.37,-0.55 -0.72,-1.11q-0.35,-0.57 -0.67,-1.15q-0.32,-0.59 -0.61,-1.19q-0.29,-0.6 -0.55,-1.21q-0.26,-0.61 -0.49,-1.24q-0.23,-0.62 -0.43,-1.26q-0.19,-0.63 -0.36,-1.28q-0.16,-0.64 -0.3,-1.3c-1.58,-7.58 -0.19,-15.69 4.24,-22.1c4.81,-6.95 11.3,-9.72 19.27,-11.3z" fill="#D290D4" id="svg_15"/>
  <path d="m922.33,0l10.87,0c10.98,10.42 9.31,14.88 12.92,28.01c5.52,20.05 21.06,35.3 41.36,39.89c8.79,1.99 18.47,2.48 26.38,7.18c5.6,3.32 6.24,7.2 7.8,13.08c-0.54,2.05 -1.02,4.27 -2.08,6.12c-5.84,10.28 -22.61,9 -32.72,11.12q-1.4,0.27 -2.78,0.63q-1.38,0.36 -2.74,0.79q-1.36,0.44 -2.69,0.95q-1.33,0.51 -2.63,1.1q-1.3,0.58 -2.56,1.24q-1.27,0.66 -2.49,1.39q-1.23,0.73 -2.41,1.52q-1.18,0.8 -2.31,1.66c-9.34,7.13 -17.62,18.11 -20.69,29.55c-2.24,8.35 -0.58,20.76 -7.52,26.99c-3.49,3.13 -8.48,3.71 -12.99,3.35c-15.89,-1.23 -12.51,-20.09 -15.72,-31.06c-2.19,-7.44 -6.58,-14.51 -11.74,-20.25c-6.99,-7.79 -15.94,-14.62 -26,-17.81c-10.26,-3.26 -27.5,-0.33 -34.78,-9.46c-2.73,-3.43 -3,-7.86 -2.36,-12.04c2.28,-14.99 24.08,-13.23 35.31,-16.1q2.45,-0.65 4.83,-1.53q2.37,-0.88 4.65,-1.99q2.28,-1.1 4.45,-2.42q2.16,-1.32 4.19,-2.84q1.07,-0.8 2.11,-1.65q1.03,-0.85 2.02,-1.75q0.99,-0.89 1.94,-1.84q0.95,-0.94 1.85,-1.93q0.9,-0.98 1.76,-2.01q0.85,-1.03 1.66,-2.1q0.8,-1.07 1.55,-2.17q0.76,-1.11 1.46,-2.25q0.7,-1.14 1.34,-2.31q0.65,-1.17 1.23,-2.37q0.59,-1.2 1.12,-2.43q0.53,-1.23 1,-2.48q0.48,-1.25 0.89,-2.52q0.41,-1.28 0.76,-2.57q0.35,-1.29 0.64,-2.59q0.29,-1.31 0.52,-2.63c0.84,-5.14 1.2,-11.28 4.01,-15.76c2.09,-3.32 5.48,-5.43 8.59,-7.71zm-3.6,76.05l-10.97,10.46c6.78,6.64 13.21,13.6 19.65,20.56l3.79,-4.56c-0.35,-1.1 -0.71,-2.24 -0.62,-3.41c0.54,-6.39 8.02,-9.25 12.4,-12.97c-4.72,-3.86 -7.67,-11.6 -12.8,-14.37l-1.6,0.5c-1.59,-0.39 -1.77,-0.77 -2.85,-1.95c-2.25,1.45 -4.31,4.33 -6.12,6.35l-0.88,-0.61zm8.48,-8.99l-8.48,8.99l0.88,0.61c1.81,-2.02 3.87,-4.9 6.12,-6.35c1.08,1.18 1.26,1.56 2.85,1.95l1.6,-0.5c5.13,2.77 8.08,10.51 12.8,14.37c-4.38,3.72 -11.86,6.58 -12.4,12.97c-0.09,1.17 0.27,2.31 0.62,3.41q7.23,-8.34 15.11,-16.07c-6.63,-6.21 -12.67,-12.98 -19.1,-19.38z" fill="#4A1844" id="svg_16"/>
  <path d="m927.21,67.06c6.43,6.4 12.47,13.17 19.1,19.38q-7.88,7.73 -15.11,16.07c-0.35,-1.1 -0.71,-2.24 -0.62,-3.41c0.54,-6.39 8.02,-9.25 12.4,-12.97c-4.72,-3.86 -7.67,-11.6 -12.8,-14.37l-1.6,0.5c-1.59,-0.39 -1.77,-0.77 -2.85,-1.95c-2.25,1.45 -4.31,4.33 -6.12,6.35l-0.88,-0.61l8.48,-8.99z" fill="#E6C1D7" fill-opacity="0.99" id="svg_17"/>
  <path d="m918.73,76.05l0.88,0.61c1.81,-2.02 3.87,-4.9 6.12,-6.35c1.08,1.18 1.26,1.56 2.85,1.95l1.6,-0.5c5.13,2.77 8.08,10.51 12.8,14.37c-4.38,3.72 -11.86,6.58 -12.4,12.97c-0.09,1.17 0.27,2.31 0.62,3.41l-3.79,4.56c-6.44,-6.96 -12.87,-13.92 -19.65,-20.56l10.97,-10.46z" fill="#E6C1D7" fill-opacity="0.91" id="svg_18"/>
  <path d="m0,346.46c5.28,-8.42 10.48,-16.28 20.87,-18.71c6.64,-1.54 14,-0.52 19.78,3.15c6.24,3.98 10.69,10.9 12.14,18.12c1.37,6.82 0.46,14.08 -3.44,19.95c-3.85,5.77 -10.06,9.56 -16.85,10.77c-7.26,1.29 -15.33,-0.16 -21.34,-4.55c-5.85,-4.28 -7.32,-10.2 -11.16,-15.86l0,-12.87z" fill="#D290D4" id="svg_19"/>
  <path d="m353.24,91.73c4.63,-0.02 9.29,0.07 13.91,0.55c22.96,2.38 45.53,12.68 60.12,30.94c13.75,17.21 19.24,38.83 16.63,60.6c-2.16,18.14 -10.59,36.69 -25.24,48.09c-11.47,8.92 -25.68,12.06 -39.98,10.22q-1.24,-0.17 -2.47,-0.39q-1.23,-0.23 -2.44,-0.52q-1.22,-0.29 -2.42,-0.63q-1.2,-0.35 -2.39,-0.75q-1.18,-0.41 -2.34,-0.87q-1.17,-0.46 -2.31,-0.97q-1.14,-0.52 -2.25,-1.09q-1.11,-0.57 -2.2,-1.19q-1.08,-0.63 -2.13,-1.3q-1.06,-0.68 -2.07,-1.41q-1.02,-0.72 -2.01,-1.5q-0.98,-0.77 -1.92,-1.59q-0.95,-0.82 -1.85,-1.69q-0.9,-0.86 -1.76,-1.77q-0.86,-0.91 -1.68,-1.86q-0.81,-0.94 -1.58,-1.93c-7.89,-10.24 -13.23,-25.73 -11.37,-38.71c0.77,-5.4 2.99,-10.1 7.52,-13.3c3.9,-2.77 9.06,-3.46 13.7,-2.62c15.56,2.8 10,24.37 16.98,34.38c2.57,3.7 6.28,6.41 10.76,7.19c5.17,0.9 10.75,-1.02 14.96,-3.98c7.82,-5.5 11.93,-15.11 13.43,-24.28q0.19,-1.14 0.32,-2.28q0.14,-1.14 0.21,-2.29q0.08,-1.15 0.1,-2.3q0.02,-1.15 -0.01,-2.3q-0.04,-1.15 -0.13,-2.3q-0.1,-1.15 -0.25,-2.29q-0.15,-1.14 -0.35,-2.27q-0.21,-1.13 -0.48,-2.26q-0.26,-1.12 -0.58,-2.22q-0.31,-1.11 -0.69,-2.2q-0.37,-1.09 -0.79,-2.15q-0.43,-1.07 -0.91,-2.12q-0.48,-1.05 -1.01,-2.07q-0.53,-1.02 -1.11,-2.02q-0.58,-0.99 -1.21,-1.95q-0.63,-0.97 -1.3,-1.9c-8.4,-11.55 -21.51,-18.18 -35.45,-20.26c-20.46,-3.05 -42.43,3.24 -58.98,15.41c-44.83,34.2 -39.36,91.08 -73.39,132.37c-12.64,15.34 -41.65,41.55 -61.62,43.13c-4.78,0.38 -9.23,-1.09 -12.78,-4.34c-3.24,-2.98 -5.35,-7.14 -5.49,-11.57c-0.28,-8.74 6.28,-14.26 13.37,-17.92c11.59,-5.99 22.3,-11.69 31.96,-20.69c24.33,-22.65 28.8,-53.75 40.52,-83.1c7.27,-18.21 17.95,-35.69 31.46,-49.93c21.12,-22.25 50.06,-36.97 80.99,-37.8z" fill="#4A1844" id="svg_20"/>
  <path d="m0,0l102.18,0l7.55,0c0.15,0.2 0.3,0.4 0.45,0.6c2.69,3.4 7.73,4.26 10.1,8.37c3.45,5.97 3.89,13.78 4.99,20.42c2.88,17.36 13.17,33.85 27.86,43.7c7.09,4.75 15.31,8.53 23.62,10.52c12.96,3.1 36.48,0.44 34.42,20.63c-0.44,4.23 -2.34,8.05 -5.76,10.64c-7.17,5.43 -17.29,4.65 -25.78,5.71c-17.26,2.17 -32.69,13.05 -42.92,26.82c-4.77,6.4 -8.79,13.85 -11.03,21.54c-3.88,13.29 -2.03,39.51 -22.91,36.4c-4.09,-0.61 -7.62,-2.55 -10.06,-5.92c-5.84,-8.06 -4.48,-19.7 -6.59,-29.02c-5.88,-25.99 -29.91,-46.1 -55.51,-50.94c-16.55,-3.14 -19.49,2.45 -30.61,-13.54l0,-8.4l0,-97.53zm0,0l0,97.53c2.84,-4.15 5.52,-7.92 10.07,-10.39c5.75,-3.11 12.35,-3.05 18.67,-3.72c11.94,-1.25 23.31,-4.52 33.11,-11.67q1.2,-0.9 2.36,-1.84q1.17,-0.95 2.29,-1.95q1.12,-0.99 2.19,-2.04q1.08,-1.05 2.1,-2.14q1.03,-1.09 2,-2.23q0.98,-1.14 1.9,-2.32q0.93,-1.18 1.8,-2.4q0.87,-1.22 1.68,-2.48q0.82,-1.26 1.58,-2.55q0.76,-1.29 1.46,-2.62q0.7,-1.33 1.33,-2.68q0.64,-1.36 1.22,-2.74q0.58,-1.39 1.1,-2.79q0.51,-1.41 0.96,-2.84q0.46,-1.43 0.84,-2.88q0.39,-1.45 0.72,-2.91c1.09,-5.18 1.32,-10.52 2.16,-15.74c1.47,-9.11 5.81,-11.67 12.64,-16.6l-102.18,0z" fill="#4A1844" id="svg_21"/>
  <path d="m105.67,72.82c3.57,3.4 5.88,7.95 9.12,11.65c6.07,6.95 14.22,12.37 21.57,17.84c-12.13,8.48 -21.32,18.68 -30.37,30.26c-4.09,-3.1 -6.63,-9.07 -9.9,-13.08c-5.65,-6.93 -13.29,-12.04 -20.65,-16.96c11.67,-8.84 21.12,-18.32 30.23,-29.71z" fill="#D290D4" id="svg_22"/>
 </g>
</svg>