<?xml version="1.0" encoding="utf-8" ?>
<svg xmlns="http://www.w3.org/2000/svg" xmlns:xlink="http://www.w3.org/1999/xlink" width="1024" height="1024">
	<path fill="#4A1844" d="M0 0L102.18 0L109.732 0L517.399 0L529.193 0L922.325 0L933.2 0L1024 0L1024 456.146L1024 475.611L1024 709.172L1024 819.855L1024 1024L969.019 1024L507.225 1024L0 1024L0 359.332L0 346.465L0 105.927L0 97.5324L0 0ZM0 0L0 97.5324L0 105.927L0 346.465L0 359.332L0 1024L507.225 1024C507.064 1023.18 506.993 1022.91 506.264 1022.42C505.058 1021.61 503.171 1021.1 501.792 1020.53C497.203 1018.62 493.014 1016.56 489.474 1012.96C483.713 1007.1 482.127 1000.23 480.924 992.357C478.256 974.91 480.093 956.378 480.177 938.755L480.191 846.699C471.365 844.865 462.562 842.321 456.223 835.515C452.034 831.016 449.44 824.694 448.369 818.675C447.19 812.047 447.481 804.796 447.499 798.076L447.87 764.641C447.933 749.801 447.021 734.939 447.607 720.105C448.039 709.192 449.735 697.449 458.449 689.793C469.973 679.669 488.118 681.82 502.341 681.835C509.16 681.842 516.028 681.513 522.836 681.792C516.907 674.049 509.772 667.965 504.996 659.233C496.63 643.936 496.16 624.711 500.969 608.236Q501.474 606.455 502.068 604.701Q502.662 602.947 503.343 601.225Q504.023 599.503 504.789 597.817Q505.555 596.131 506.404 594.486Q507.253 592.84 508.183 591.239Q509.113 589.638 510.122 588.085Q511.131 586.532 512.216 585.032Q513.301 583.532 514.46 582.088Q515.619 580.643 516.848 579.259Q518.077 577.874 519.374 576.553Q520.671 575.231 522.033 573.976Q523.394 572.721 524.817 571.535Q526.239 570.35 527.719 569.237Q529.199 568.124 530.732 567.086Q532.266 566.048 533.849 565.088Q535.433 564.129 537.062 563.249C562.663 549.493 587.412 555.409 613.664 563.237C611.3 556.524 607.749 550.132 604.673 543.714C599.794 533.534 595.053 523.268 589.989 513.181C563.122 520.456 535.091 531.957 506.777 527.283C483.823 523.493 462.719 509.513 449.298 490.675Q448.664 489.777 448.053 488.864Q447.441 487.951 446.852 487.023Q446.263 486.095 445.697 485.153Q445.131 484.211 444.589 483.255Q444.046 482.3 443.528 481.331Q443.009 480.362 442.514 479.381Q442.019 478.4 441.548 477.406Q441.078 476.413 440.632 475.409Q440.186 474.404 439.765 473.389Q439.343 472.374 438.947 471.349Q438.551 470.324 438.181 469.289Q437.81 468.255 437.465 467.211Q437.12 466.168 436.8 465.117Q436.481 464.065 436.188 463.006Q435.894 461.947 435.627 460.881Q435.36 459.815 435.119 458.743Q434.878 457.67 434.664 456.592Q434.449 455.515 434.261 454.432Q434.073 453.349 433.912 452.262Q433.751 451.175 433.617 450.084Q433.482 448.993 433.375 447.9Q433.267 446.806 433.187 445.71Q433.106 444.614 433.053 443.516Q432.999 442.419 432.973 441.32Q432.946 440.221 432.947 439.122Q432.947 438.023 432.975 436.925Q433.002 435.826 433.057 434.728Q433.112 433.631 433.193 432.535Q433.275 431.439 433.383 430.345Q433.492 429.252 433.627 428.161Q433.763 427.07 433.925 425.984Q434.087 424.897 434.276 423.814C440.85 385.25 474.897 365.858 497.223 337.324C504.139 328.485 508.662 318.303 513.875 308.447C524.697 287.985 539.94 272.984 558.565 259.671C555.029 244.814 552.263 229.748 549.12 214.801L530.859 128.626L517.793 67.3408C515.126 55.0726 506.194 23.7215 507.444 12.9647C508.17 6.71185 512.816 3.57955 517.399 0L109.732 0L102.18 0L0 0ZM529.193 0C540.844 9.31228 547.838 22.9071 555.93 35.2019L576.768 66.6824Q607.643 113.053 637.973 159.78C651.407 180.441 664.507 201.264 678.303 221.691C691.381 212.84 704.646 204.225 717.625 195.236C727.729 188.237 737.541 179.764 748.811 174.723C752.525 173.062 756.477 172.168 760.537 172.915Q761.255 173.043 761.956 173.243Q762.657 173.444 763.334 173.714Q764.011 173.984 764.657 174.321Q765.304 174.658 765.913 175.058Q766.522 175.459 767.087 175.919Q767.653 176.38 768.169 176.895Q768.685 177.41 769.146 177.974Q769.607 178.539 770.009 179.147C771.879 181.928 772.854 185.221 773.111 188.545C773.702 196.195 772.187 204.31 771.286 211.898C769.764 224.709 768.192 237.582 768.397 250.503C778.672 252.692 789.214 254.473 799.236 257.641Q801.781 258.455 804.29 259.377Q806.798 260.3 809.264 261.329Q811.73 262.359 814.15 263.493Q816.57 264.628 818.939 265.865Q821.308 267.103 823.621 268.441Q825.934 269.779 828.188 271.215Q830.442 272.651 832.632 274.183Q834.822 275.715 836.944 277.339Q839.066 278.964 841.116 280.678Q843.167 282.392 845.142 284.192Q847.116 285.993 849.012 287.877Q850.907 289.761 852.72 291.724Q854.533 293.688 856.26 295.728Q857.987 297.767 859.625 299.879Q861.262 301.991 862.807 304.172Q864.353 306.352 865.803 308.597C878.351 327.959 884.216 349.8 884.375 372.745C884.434 381.236 883.764 390.008 886.35 398.224C889.837 409.304 899.21 417.675 906.188 426.615Q907.174 427.904 908.126 429.22Q909.077 430.535 909.992 431.876Q910.907 433.217 911.785 434.582Q912.663 435.948 913.504 437.336Q914.345 438.725 915.148 440.136Q915.951 441.547 916.715 442.979Q917.48 444.411 918.205 445.863Q918.93 447.316 919.615 448.788Q920.3 450.259 920.946 451.749Q921.591 453.238 922.195 454.745Q922.8 456.252 923.363 457.774Q923.926 459.297 924.448 460.834Q924.97 462.371 925.449 463.922Q925.929 465.473 926.367 467.036Q926.804 468.599 927.199 470.174Q927.594 471.749 927.946 473.333Q928.298 474.918 928.607 476.512Q928.916 478.106 929.181 479.707Q929.446 481.309 929.668 482.917Q929.89 484.525 930.068 486.138Q930.246 487.752 930.38 489.37Q930.514 490.988 930.605 492.609Q930.695 494.229 930.741 495.852Q930.787 497.475 930.789 499.098Q930.791 500.722 930.749 502.344Q930.707 503.967 930.621 505.588Q930.535 507.209 930.404 508.828Q930.274 510.446 930.1 512.06Q929.926 513.674 929.708 515.282Q929.491 516.891 929.229 518.493Q928.968 520.095 928.663 521.69Q928.358 523.284 928.01 524.87C925.604 535.877 921.115 546.048 916.442 556.232C937.112 560.914 953.078 571.251 964.485 589.484Q965.347 590.884 966.141 592.324Q966.934 593.764 967.656 595.241Q968.378 596.719 969.027 598.229Q969.677 599.74 970.251 601.28Q970.826 602.82 971.325 604.387Q971.824 605.954 972.247 607.543Q972.669 609.132 973.013 610.739Q973.357 612.347 973.623 613.97Q973.888 615.592 974.074 617.226Q974.26 618.86 974.367 620.5Q974.473 622.141 974.499 623.785Q974.525 625.429 974.471 627.072Q974.417 628.716 974.283 630.354Q974.149 631.993 973.936 633.623Q973.722 635.254 973.429 636.871Q973.136 638.489 972.765 640.091C968.502 657.85 957.303 669.512 944.213 681.494Q956.51 681.654 968.808 681.673C984.936 681.755 1001.25 681.365 1013.41 693.767C1016.92 697.351 1020.85 707.56 1024 709.172L1024 475.611L1024 456.146L1024 0L933.2 0L922.325 0L529.193 0ZM623.413 505.228C629.768 519.244 637.222 532.759 643.796 546.676C650.951 561.823 656.797 578.072 666.395 591.91C672.47 600.668 681.652 606.106 688.801 613.81C707.151 633.582 718.252 657.456 728.784 681.98L743.237 682.306C753.2 653.238 771.261 621.891 795.773 602.979C791.709 594.794 789.58 585.48 786.992 576.747Q783.036 563.716 778.744 550.792Q759.631 493.196 741.333 435.335C735.553 417.311 721.87 381.071 721.171 363.889C724.621 358.74 729.18 356.933 734.662 354.567C731.92 347.056 728.596 339.287 727.666 331.304C726.394 320.386 728.862 309.51 729.959 298.688L733.557 260.552C734.715 248.232 736.02 236.02 736.016 223.628C723.345 231.122 711.036 239.955 698.922 248.339C691.44 253.518 684.043 259.726 675.513 263.084C666.041 266.811 655.48 266.091 645.498 266.824C614.283 269.115 581.634 279.92 559.213 302.492C540.854 320.974 533.291 347.082 516.148 366.495C499.824 384.98 474.475 401.427 468.191 426.573Q467.863 427.872 467.6 429.185Q467.338 430.498 467.14 431.823Q466.943 433.148 466.812 434.481Q466.681 435.814 466.617 437.151Q466.552 438.489 466.554 439.828Q466.556 441.168 466.625 442.505Q466.694 443.843 466.829 445.175Q466.964 446.508 467.166 447.832Q467.367 449.156 467.634 450.469Q467.901 451.781 468.233 453.079Q468.565 454.376 468.961 455.655Q469.358 456.935 469.817 458.193Q470.276 459.451 470.798 460.685Q471.319 461.919 471.901 463.125Q472.483 464.331 473.125 465.507Q473.766 466.683 474.465 467.825C482.337 480.664 495.677 489.852 510.264 493.254C517.009 494.827 523.455 495.082 530.297 494.136C547.28 491.788 564.017 485.782 580.55 481.339C607.867 473.999 635.34 467.179 662.604 459.654C674.882 456.266 688.451 449.81 701.274 450.074C707.376 450.2 712.848 453.009 716.08 458.267Q716.509 458.952 716.868 459.676Q717.226 460.4 717.511 461.156Q717.795 461.913 718.003 462.694Q718.21 463.474 718.339 464.272Q718.467 465.07 718.516 465.877Q718.564 466.683 718.531 467.49Q718.499 468.298 718.386 469.098Q718.273 469.898 718.081 470.683C716.774 475.821 712.841 479.515 708.326 481.994C696.548 488.461 679.806 490.402 666.703 493.71C652.228 497.366 637.898 501.605 623.413 505.228ZM513.361 846.759C512.696 853.044 512.969 859.591 512.926 865.919Q512.758 883.136 512.86 900.353C512.975 930.427 512.806 960.559 513.419 990.626C529.515 990.421 685.839 990.948 687.117 989.908C688.26 965.065 687.306 939.901 687.323 915.019L687.371 870.561C687.38 862.669 687.68 854.65 687.291 846.776Q600.326 846.131 513.361 846.759ZM784.69 846.912C784.164 873.602 784.633 900.377 784.652 927.076C784.668 948.097 784.084 969.328 784.812 990.326C823.311 989.776 861.875 990.557 900.389 990.22C910.833 990.129 921.517 990.875 931.909 990.35C933.613 942.552 931.314 894.601 932.481 846.799C901.314 845.642 869.912 846.028 838.721 846.204C820.854 846.304 802.464 845.529 784.69 846.912ZM992.401 846.791C991.676 881.081 992.243 915.498 992.273 949.8C992.285 964.109 993.672 984.253 991.379 997.789C990.331 1003.98 988.24 1009.86 983.522 1014.24C980.556 1016.99 968.792 1020.72 968.299 1022.54L969.019 1024L1024 1024L1024 819.855C1023.57 820.022 1023.08 820.094 1022.7 820.355C1021.01 821.498 1016.31 835.043 1006.1 841.422C1001.83 844.09 997.22 845.471 992.401 846.791Z"/>
	<path fill="#E6C1D7" d="M932.481 846.799L960.074 846.968Q960.659 918.664 960.472 990.362C950.966 990.594 941.406 990.963 931.909 990.35C933.613 942.552 931.314 894.601 932.481 846.799Z"/>
	<path fill="#D290D4" d="M559.38 104.264C562.416 105.646 565.564 111.15 567.529 113.939C575.75 125.601 583.04 137.951 590.937 149.842L646.784 233.861Q642.575 234.264 638.381 234.803Q626.037 236 613.86 238.349Q601.683 240.698 589.78 244.177C587.226 231.174 584.033 218.325 581.27 205.37L567.824 141.059C565.183 128.743 561.179 116.757 559.38 104.264Z"/>
	<path fill="#9C60AA" d="M890.108 589.653C903.082 587.944 916.324 589.031 927.073 597.182C934.285 602.651 940.115 610.881 941.298 620.009C942.471 629.056 939.343 637.411 933.831 644.464C915.621 667.766 881.893 676.793 853.651 680.079C828.637 682.99 803.462 681.451 778.357 681.516C779.703 678.924 780.992 676.292 782.557 673.823C784.291 674.103 786.023 674.167 787.777 674.184C817.956 674.469 872.479 665.188 894.338 643.527C900.07 637.847 904.007 630.76 903.838 622.467Q903.783 620.484 903.443 618.53Q903.104 616.575 902.486 614.69C900.969 609.991 892.939 592.276 890.108 589.653Z"/>
	<path fill="#E6C1D7" d="M734.662 354.567C749.092 396.486 762.07 438.999 775.878 481.137C787.739 517.336 800.614 553.31 811.647 589.761L795.773 602.979C791.709 594.794 789.58 585.48 786.992 576.747Q783.036 563.716 778.744 550.792Q759.631 493.196 741.333 435.335C735.553 417.311 721.87 381.071 721.171 363.889C724.621 358.74 729.18 356.933 734.662 354.567Z"/>
	<path fill="#AD6AAC" d="M782.557 673.823Q784.153 670.699 785.934 667.678C809.385 628.515 845.678 600.637 890.108 589.653C892.939 592.276 900.969 609.991 902.486 614.69Q903.104 616.575 903.443 618.53Q903.783 620.484 903.838 622.467C904.007 630.76 900.07 637.847 894.338 643.527C872.479 665.188 817.956 674.469 787.777 674.184C786.023 674.167 784.291 674.103 782.557 673.823Z"/>
	<path fill="#AD6AAC" d="M720.495 716.005L752.513 716.006L752.816 989.711C742.073 990.788 731.26 990.449 720.497 990.01L720.495 716.005Z"/>
	<path fill="#9C60AA" d="M567.943 588.639C581.144 587.446 595.124 591.841 607.084 597.017C644.305 613.123 676.971 643.505 692.017 681.527Q674.204 681.592 656.403 680.947C621.562 677.781 580.893 676.781 550.396 657.602C541.376 651.929 534.506 644.289 532.225 633.624C530.301 624.628 532.669 615.298 537.67 607.691C544.667 597.05 555.698 591.156 567.943 588.639Z"/>
	<path fill="#D290D4" d="M764.627 284.911C779.23 286.16 792.632 289.506 805.578 296.594Q806.82 297.278 808.04 298.001Q809.26 298.724 810.456 299.486Q811.652 300.248 812.823 301.048Q813.994 301.847 815.139 302.684Q816.284 303.521 817.401 304.394Q818.519 305.268 819.607 306.176Q820.696 307.085 821.756 308.028Q822.815 308.97 823.843 309.947Q824.872 310.923 825.868 311.932Q826.865 312.941 827.828 313.981Q828.792 315.021 829.722 316.092Q830.652 317.163 831.547 318.262Q832.443 319.362 833.302 320.49Q834.162 321.618 834.984 322.773Q835.807 323.928 836.593 325.109Q837.378 326.289 838.126 327.495Q838.873 328.7 839.581 329.928Q840.289 331.157 840.958 332.408Q841.626 333.658 842.255 334.93Q842.883 336.201 843.47 337.492Q844.057 338.783 844.602 340.092Q845.147 341.401 845.651 342.727Q846.154 344.053 846.614 345.394Q847.075 346.735 847.492 348.09Q847.909 349.446 848.283 350.814Q848.656 352.182 848.986 353.561Q849.316 354.94 849.601 356.329Q849.886 357.719 850.126 359.116Q850.367 360.514 850.563 361.918Q850.758 363.323 850.909 364.733Q851.06 366.143 851.165 367.557Q851.27 368.971 851.33 370.388C852.032 385.021 850.165 400.416 856.299 414.188C859.484 421.34 864.261 427.537 868.964 433.731C879.241 447.265 889.468 460.636 894.246 477.249C902.531 506.054 892.688 529.905 878.775 554.839C873.077 559.664 863.207 561.303 856.229 563.905C851.2 565.78 846.292 567.984 841.383 570.15Q831.428 539.41 820.901 508.862L783.1 395.011L770.038 355.679C767.09 347.064 763.154 338.268 761.785 329.228C759.669 315.259 762.952 298.901 764.627 284.911Z"/>
	<path fill="#D290D4" d="M481.51 716.012L687.023 715.97L686.982 780.485C686.981 791.202 687.712 802.319 686.83 812.978L481.941 813.439Q481.072 764.728 481.51 716.012Z"/>
	<path fill="#D290D4" d="M975.722 714.717C979.112 714.542 983.128 714.009 986.41 715.06C988.153 715.618 989.22 716.691 990 718.311C990.957 720.299 991.349 722.618 991.506 724.803C992.336 736.321 991.431 748.164 991.423 759.723C991.417 769.78 993.396 803.794 990.788 811.125C988.771 813.134 985.083 813.285 982.342 813.479C974.32 814.047 966.172 813.718 958.136 813.647L923.127 813.485L800.812 813.568Q792.884 813.723 784.961 814.032Q784.116 764.769 784.843 715.505L903.483 715.079C927.553 715.042 951.667 715.76 975.722 714.717Z"/>
	<path fill="#4A1844" d="M514.085 425.054C517.471 424.692 520.851 425.021 524.036 426.285Q524.797 426.584 525.523 426.959Q526.25 427.334 526.933 427.783Q527.617 428.231 528.251 428.747Q528.885 429.264 529.462 429.842Q530.039 430.421 530.554 431.057Q531.069 431.692 531.515 432.377Q531.961 433.062 532.335 433.789Q532.708 434.516 533.005 435.278Q533.328 436.099 533.567 436.948Q533.807 437.797 533.961 438.666Q534.115 439.535 534.181 440.415Q534.248 441.294 534.227 442.176Q534.206 443.058 534.098 443.934Q533.989 444.81 533.794 445.67Q533.599 446.53 533.32 447.367Q533.04 448.204 532.679 449.009C530.055 454.817 525.366 457.462 519.642 459.477C516.141 459.577 512.993 459.364 509.743 457.936Q509.34 457.762 508.947 457.568Q508.554 457.374 508.171 457.159Q507.789 456.945 507.418 456.711Q507.047 456.477 506.689 456.224Q506.33 455.971 505.986 455.7Q505.641 455.429 505.31 455.141Q504.98 454.852 504.665 454.547Q504.35 454.242 504.052 453.921Q503.753 453.6 503.471 453.264Q503.189 452.928 502.925 452.577Q502.662 452.227 502.416 451.864Q502.171 451.5 501.944 451.125Q501.718 450.749 501.511 450.362Q501.305 449.975 501.119 449.578Q500.932 449.181 500.767 448.775Q500.601 448.369 500.457 447.955Q500.162 447.124 499.952 446.267Q499.742 445.411 499.619 444.538Q499.496 443.664 499.462 442.783Q499.428 441.902 499.482 441.022Q499.537 440.141 499.68 439.271Q499.823 438.401 500.053 437.55Q500.283 436.698 500.597 435.874Q500.911 435.05 501.307 434.262C504.081 428.869 508.589 426.745 514.085 425.054Z"/>
	<path fill="#4A1844" d="M613.511 337.58C617.61 337.246 621.293 337.457 624.984 339.456C628.984 341.622 631.792 345.343 633.042 349.693Q633.3 350.584 633.469 351.497Q633.637 352.41 633.713 353.334Q633.79 354.259 633.774 355.187Q633.758 356.115 633.65 357.037Q633.542 357.958 633.342 358.865Q633.143 359.771 632.854 360.653Q632.566 361.535 632.191 362.384Q631.816 363.233 631.358 364.04C628.576 368.858 624.328 371.08 619.138 372.459C615.072 372.789 611.12 372.392 607.457 370.494Q607.063 370.29 606.679 370.065Q606.296 369.841 605.925 369.597Q605.554 369.353 605.196 369.09Q604.838 368.827 604.495 368.546Q604.151 368.264 603.823 367.966Q603.494 367.667 603.181 367.351Q602.869 367.036 602.573 366.704Q602.278 366.373 602 366.027Q601.722 365.68 601.462 365.32Q601.202 364.96 600.962 364.586Q600.721 364.213 600.501 363.827Q600.28 363.442 600.08 363.046Q599.879 362.649 599.7 362.243Q599.521 361.837 599.362 361.422Q599.204 361.007 599.068 360.584Q598.932 360.161 598.818 359.732C597.567 355.089 598.215 349.893 600.755 345.791C603.743 340.965 608.2 338.834 613.511 337.58Z"/>
	<path fill="#D290D4" d="M1024 475.611C1019.6 476.36 1016.67 485.223 1012.32 487.91C1006.48 491.526 997.629 491.983 991.226 490.09Q990.608 489.907 989.999 489.694Q989.391 489.481 988.794 489.237Q988.197 488.994 987.612 488.721Q987.028 488.449 986.458 488.147Q985.888 487.845 985.334 487.516Q984.78 487.186 984.243 486.829Q983.706 486.473 983.188 486.089Q982.669 485.706 982.171 485.298Q981.672 484.889 981.194 484.456Q980.716 484.023 980.26 483.567Q979.805 483.111 979.372 482.633Q978.94 482.154 978.532 481.655Q978.124 481.156 977.742 480.637Q977.359 480.118 977.003 479.581Q976.647 479.043 976.318 478.489Q975.989 477.934 975.688 477.364C972.303 470.85 972.085 462.767 974.53 455.901Q974.728 455.328 974.954 454.765Q975.18 454.202 975.434 453.652Q975.687 453.101 975.968 452.563Q976.249 452.025 976.555 451.502Q976.862 450.979 977.194 450.472Q977.526 449.964 977.883 449.474Q978.24 448.984 978.621 448.512Q979.001 448.04 979.405 447.587Q979.808 447.134 980.234 446.702Q980.659 446.27 981.105 445.859Q981.552 445.448 982.018 445.06Q982.484 444.672 982.968 444.308Q983.453 443.943 983.955 443.603Q984.457 443.263 984.975 442.947Q985.493 442.632 986.026 442.343Q986.559 442.054 987.106 441.792Q988.696 441.063 990.366 440.544Q992.036 440.024 993.759 439.723Q995.482 439.422 997.23 439.344Q998.977 439.266 1000.72 439.412C1017.32 440.835 1017.21 453.711 1024 456.146L1024 475.611Z"/>
	<path fill="#D290D4" d="M705.114 36.1022C711.072 35.7703 716.347 36.421 721.597 39.4599Q722.167 39.7922 722.718 40.153Q723.27 40.5138 723.803 40.9023Q724.335 41.2908 724.848 41.706Q725.36 42.1211 725.85 42.5618Q726.341 43.0025 726.808 43.4677Q727.275 43.9328 727.718 44.4211Q728.161 44.9094 728.579 45.4197Q728.996 45.93 729.387 46.4609Q729.778 46.9918 730.141 47.5419Q730.505 48.092 730.84 48.6599Q731.175 49.2279 731.48 49.8121Q731.786 50.3964 732.061 50.9955Q732.336 51.5945 732.581 52.2068Q732.825 52.8192 733.038 53.4431Q733.251 54.0671 733.432 54.7012Q733.613 55.3352 733.761 55.9776C735.521 63.3161 734.579 71.6668 730.472 78.0631C725.668 85.544 718.695 88.6131 710.413 90.3629C704.178 90.7608 698.71 90.0101 693.335 86.5968Q692.774 86.2385 692.232 85.8525Q691.689 85.4666 691.167 85.054Q690.645 84.6413 690.144 84.203Q689.643 83.7648 689.164 83.3019Q688.686 82.8391 688.231 82.3529Q687.776 81.8667 687.347 81.3583Q686.917 80.8499 686.513 80.3207Q686.11 79.7914 685.733 79.2426Q685.356 78.6938 685.008 78.1268Q684.659 77.5598 684.339 76.976Q684.019 76.3922 683.729 75.7932Q683.439 75.1941 683.179 74.5813Q682.919 73.9685 682.69 73.3434Q682.461 72.7183 682.264 72.0826Q682.067 71.4468 681.902 70.8019Q681.737 70.1571 681.604 69.5048C680.017 61.9206 681.411 53.8126 685.842 47.4016C690.65 40.4455 697.143 37.6761 705.114 36.1022Z"/>
	<path fill="#4A1844" d="M922.325 0L933.2 0C944.177 10.4198 942.507 14.8779 946.123 28.0138C951.643 48.0622 967.176 63.3146 987.484 67.9021C996.27 69.8867 1005.95 70.3818 1013.86 75.0757C1019.46 78.3979 1020.1 82.2835 1021.66 88.1645C1021.12 90.2075 1020.64 92.4281 1019.58 94.2764C1013.74 104.558 996.965 103.283 986.857 105.396Q985.459 105.675 984.079 106.032Q982.699 106.389 981.341 106.824Q979.984 107.259 978.653 107.77Q977.322 108.281 976.022 108.867Q974.723 109.453 973.458 110.111Q972.194 110.769 970.969 111.498Q969.744 112.227 968.562 113.024Q967.38 113.821 966.245 114.684C956.914 121.815 948.635 132.789 945.563 144.234C943.324 152.577 944.983 164.993 938.04 171.224C934.552 174.354 929.556 174.925 925.055 174.575C909.159 173.342 912.544 154.477 909.325 143.511C907.141 136.068 902.746 129 897.591 123.256C890.603 115.47 881.65 108.639 871.586 105.446C861.333 102.192 844.085 105.123 836.809 95.9881C834.078 92.5594 833.808 88.1297 834.445 83.947C836.728 68.9551 858.533 70.7232 869.76 67.8525Q872.21 67.2029 874.586 66.3213Q876.962 65.4396 879.243 64.3339Q881.524 63.2283 883.688 61.9089Q885.852 60.5894 887.879 59.0684Q888.952 58.2696 889.985 57.4208Q891.018 56.5719 892.01 55.6749Q893.002 54.778 893.951 53.8349Q894.899 52.8918 895.801 51.9047Q896.703 50.9176 897.558 49.8887Q898.412 48.8599 899.217 47.7916Q900.021 46.7234 900.774 45.6181Q901.527 44.5128 902.227 43.373Q902.927 42.2331 903.571 41.0614Q904.216 39.8896 904.804 38.6885Q905.392 37.4875 905.923 36.2598Q906.453 35.0322 906.925 33.7807Q907.396 32.5292 907.808 31.2567Q908.219 29.9843 908.57 28.6937Q908.921 27.4031 909.209 26.0973Q909.498 24.7915 909.725 23.4735C910.566 18.3327 910.929 12.188 913.743 7.70778C915.83 4.38658 919.223 2.27834 922.325 0ZM918.732 76.0496L907.763 86.5112C914.544 93.1527 920.968 100.106 927.411 107.07L931.2 102.51C930.854 101.412 930.487 100.267 930.584 99.1031C931.117 92.7126 938.598 89.8486 942.983 86.1288C938.262 82.2706 935.308 74.5293 930.181 71.763L928.584 72.2581C926.985 71.8688 926.814 71.4909 925.73 70.3144C923.479 71.7643 921.418 74.6357 919.613 76.6594L918.732 76.0496ZM927.205 67.0612L918.732 76.0496L919.613 76.6594C921.418 74.6357 923.479 71.7643 925.73 70.3144C926.814 71.4909 926.985 71.8688 928.584 72.2581L930.181 71.763C935.308 74.5293 938.262 82.2706 942.983 86.1288C938.598 89.8486 931.117 92.7126 930.584 99.1031C930.487 100.267 930.854 101.412 931.2 102.51Q938.427 94.1703 946.307 86.4444C939.677 80.2262 933.645 73.4649 927.205 67.0612Z"/>
	<path fill="#E6C1D7" fill-opacity="0.98823529" d="M927.205 67.0612C933.645 73.4649 939.677 80.2262 946.307 86.4444Q938.427 94.1703 931.2 102.51C930.854 101.412 930.487 100.267 930.584 99.1031C931.117 92.7126 938.598 89.8486 942.983 86.1288C938.262 82.2706 935.308 74.5293 930.181 71.763L928.584 72.2581C926.985 71.8688 926.814 71.4909 925.73 70.3144C923.479 71.7643 921.418 74.6357 919.613 76.6594L918.732 76.0496L927.205 67.0612Z"/>
	<path fill="#E6C1D7" fill-opacity="0.9137255" d="M918.732 76.0496L919.613 76.6594C921.418 74.6357 923.479 71.7643 925.73 70.3144C926.814 71.4909 926.985 71.8688 928.584 72.2581L930.181 71.763C935.308 74.5293 938.262 82.2706 942.983 86.1288C938.598 89.8486 931.117 92.7126 930.584 99.1031C930.487 100.267 930.854 101.412 931.2 102.51L927.411 107.07C920.968 100.106 914.544 93.1527 907.763 86.5112L918.732 76.0496Z"/>
	<path fill="#D290D4" d="M0 346.465C5.28135 338.036 10.4776 330.176 20.8734 327.752C27.5068 326.206 34.8739 327.225 40.6471 330.904C46.8918 334.882 51.3418 341.796 52.7931 349.02C54.1628 355.839 53.2497 363.103 49.3455 368.97C45.5039 374.743 39.2896 378.528 32.5005 379.735C25.2418 381.026 17.1658 379.585 11.164 375.191C5.31366 370.908 3.83988 364.99 0 359.332L0 346.465Z"/>
	<path fill="#4A1844" d="M353.236 91.7302C357.873 91.7109 362.533 91.8008 367.148 92.2787C390.109 94.6557 412.678 104.957 427.272 123.223C441.02 140.431 446.509 162.046 443.905 183.824C441.737 201.963 433.306 220.514 418.66 231.91C407.191 240.834 392.983 243.97 378.683 242.133Q377.444 241.964 376.214 241.736Q374.984 241.508 373.767 241.221Q372.55 240.933 371.348 240.587Q370.146 240.241 368.962 239.837Q367.778 239.434 366.615 238.973Q365.452 238.513 364.313 237.996Q363.174 237.48 362.061 236.909Q360.948 236.339 359.864 235.715Q358.78 235.091 357.727 234.416Q356.674 233.74 355.656 233.014Q354.637 232.289 353.654 231.514Q352.672 230.74 351.728 229.92Q350.784 229.099 349.881 228.234Q348.978 227.368 348.118 226.46Q347.258 225.552 346.443 224.604Q345.627 223.655 344.859 222.668C336.972 212.434 331.628 196.945 333.488 183.959C334.261 178.564 336.478 173.863 341.006 170.657C344.909 167.894 350.069 167.203 354.712 168.039C370.269 170.842 364.712 192.408 371.685 202.422C374.257 206.116 377.967 208.828 382.453 209.612C387.619 210.514 393.201 208.593 397.406 205.634C405.23 200.13 409.342 190.522 410.836 181.347Q411.027 180.212 411.162 179.069Q411.296 177.926 411.374 176.778Q411.451 175.629 411.472 174.478Q411.493 173.328 411.456 172.177Q411.419 171.027 411.326 169.88Q411.232 168.733 411.082 167.591Q410.931 166.45 410.725 165.318Q410.518 164.186 410.255 163.065Q409.992 161.945 409.674 160.839Q409.356 159.732 408.984 158.643Q408.611 157.554 408.185 156.485Q407.759 155.416 407.281 154.369Q406.802 153.323 406.272 152.301Q405.742 151.279 405.162 150.285Q404.582 149.291 403.953 148.327Q403.325 147.363 402.649 146.431C394.249 134.88 381.138 128.254 367.196 126.172C346.741 123.117 324.774 129.415 308.218 141.579C263.393 175.784 268.858 232.655 234.832 273.952C222.193 289.292 193.175 315.499 173.208 317.083C168.43 317.462 163.976 315.993 160.431 312.742C157.185 309.765 155.078 305.601 154.939 301.17C154.664 292.432 161.224 286.91 168.311 283.25C179.904 277.262 190.612 271.558 200.274 262.562C224.598 239.915 229.066 208.807 240.792 179.456C248.064 161.254 258.744 143.77 272.252 129.535C293.373 107.279 322.309 92.5601 353.236 91.7302Z"/>
	<path fill="#4A1844" d="M0 0L102.18 0L109.732 0C109.881 0.199262 110.026 0.402266 110.18 0.597786C112.866 4.002 117.907 4.85782 120.281 8.9655C123.734 14.9398 124.169 22.7454 125.271 29.3903C128.149 46.7476 138.437 63.2444 153.13 73.0883C160.22 77.8383 168.439 81.617 176.752 83.6086C189.705 86.7123 213.226 84.048 211.166 104.24C210.734 108.475 208.831 112.293 205.41 114.881C198.239 120.307 188.116 119.529 179.631 120.593C162.367 122.756 146.935 133.644 136.705 147.407C131.944 153.812 127.921 161.264 125.68 168.946C121.802 182.239 123.653 208.464 102.765 205.347C98.6777 204.737 95.1539 202.802 92.7105 199.431C86.8656 191.369 88.2307 179.727 86.123 170.41C80.2441 144.424 56.2057 124.312 30.6108 119.467C14.0633 116.334 11.115 121.917 0 105.927L0 97.5324L0 0ZM0 0L0 97.5324C2.84333 93.3849 5.51661 89.6148 10.0744 87.1424C15.8179 84.0269 22.4152 84.0891 28.7394 83.4245C40.6779 82.1699 52.0489 78.899 61.8476 71.7466Q63.0518 70.8534 64.2149 69.9072Q65.378 68.9611 66.4977 67.9639Q67.6173 66.9667 68.6912 65.9204Q69.7651 64.8742 70.7912 63.7809Q71.8173 62.6877 72.7934 61.5497Q73.7696 60.4117 74.6939 59.2312Q75.6182 58.0507 76.4889 56.83Q77.3595 55.6093 78.1746 54.351Q78.9898 53.0926 79.7479 51.799Q80.506 50.5055 81.2055 49.1793Q81.905 47.8532 82.5445 46.4971Q83.184 45.141 83.7622 43.7576Q84.3405 42.3743 84.8563 40.9665Q85.3721 39.5587 85.8244 38.1292Q86.2768 36.6998 86.6648 35.2515Q87.0528 33.8033 87.3756 32.3391C88.4714 27.1649 88.6981 21.8168 89.5386 16.5976C91.0058 7.48705 95.3451 4.93181 102.18 0L0 0Z"/>
	<path fill="#D290D4" d="M105.675 72.8196C109.244 76.2161 111.547 80.7651 114.787 84.4722C120.857 91.4178 129.009 96.8376 136.362 102.313C124.226 110.792 115.041 120.986 105.989 132.567C101.898 129.468 99.3589 123.502 96.0855 119.487C90.4356 112.557 82.8045 107.453 75.4447 102.527C87.1085 93.6916 96.5585 84.2076 105.675 72.8196Z"/>
</svg>
